<?xml version="1.0" encoding="utf-8" standalone="no"?>
<!DOCTYPE svg PUBLIC "-//W3C//DTD SVG 1.1//EN"
  "http://www.w3.org/Graphics/SVG/1.1/DTD/svg11.dtd">
<svg xmlns:xlink="http://www.w3.org/1999/xlink" width="370.786719pt" height="295.673094pt" viewBox="0 0 370.786719 295.673094" xmlns="http://www.w3.org/2000/svg" version="1.1">
 <metadata>
  <rdf:RDF xmlns:dc="http://purl.org/dc/elements/1.1/" xmlns:cc="http://creativecommons.org/ns#" xmlns:rdf="http://www.w3.org/1999/02/22-rdf-syntax-ns#">
   <cc:Work>
    <dc:type rdf:resource="http://purl.org/dc/dcmitype/StillImage"/>
    <dc:date>2026-08-01T22:56:36.318389</dc:date>
    <dc:format>image/svg+xml</dc:format>
    <dc:creator>
     <cc:Agent>
      <dc:title>Matplotlib v3.11.1, https://matplotlib.org/</dc:title>
     </cc:Agent>
    </dc:creator>
   </cc:Work>
  </rdf:RDF>
 </metadata>
 <defs>
  <style type="text/css">*{stroke-linejoin: round; stroke-linecap: butt}</style>
 </defs>
 <g id="figure_1">
  <g id="patch_1">
   <path d="M 0 295.673094 
L 370.786719 295.673094 
L 370.786719 -0 
L 0 -0 
z
" style="fill: #ffffff"/>
  </g>
  <g id="axes_1">
   <g id="patch_2">
    <path d="M 74.03 253.852 
L 366.466719 253.852 
L 366.466719 57.576 
L 74.03 57.576 
z
" style="fill: #ffffff"/>
   </g>
   <g id="FillBetweenPolyCollection_1">
    <defs>
     <path id="mb3c39097e9" d="M 87.322578 -229.068035 
L 87.322578 -228.97288 
L 87.362327 -227.366538 
L 87.40196 -226.828785 
L 87.441603 -226.421039 
L 87.481185 -226.047662 
L 87.519883 -225.667221 
L 87.55979 -225.369563 
L 87.599656 -224.95093 
L 87.639232 -224.563395 
L 87.678865 -224.20337 
L 87.718668 -223.894312 
L 87.758323 -223.564226 
L 87.797942 -223.194573 
L 87.836563 -222.768188 
L 87.876512 -222.414872 
L 87.916334 -222.111085 
L 87.956082 -221.762668 
L 87.995918 -221.458347 
L 88.035737 -221.121302 
L 88.07552 -220.735286 
L 88.115317 -220.455093 
L 88.154863 -220.059825 
L 88.193218 -219.72968 
L 88.23283 -219.415464 
L 88.272472 -219.11756 
L 88.312225 -218.81121 
L 88.352121 -218.471633 
L 88.391911 -218.17103 
L 88.431585 -217.902966 
L 88.471104 -217.517118 
L 88.509658 -217.136343 
L 88.549261 -216.964906 
L 88.588928 -216.631633 
L 88.628643 -216.300346 
L 88.668542 -216.024133 
L 88.708392 -215.679022 
L 88.74826 -215.362685 
L 88.788101 -215.064745 
L 88.826667 -214.779055 
L 88.866509 -214.428257 
L 88.906287 -214.200419 
L 88.946088 -213.889133 
L 88.985807 -213.649258 
L 89.025718 -213.358513 
L 89.065596 -212.915371 
L 89.105421 -212.644435 
L 89.145133 -212.361693 
L 89.183736 -212.094232 
L 89.223466 -211.866492 
L 89.263314 -211.632629 
L 89.303243 -211.377291 
L 89.343017 -211.140814 
L 89.382771 -210.906748 
L 89.422536 -210.666365 
L 89.462387 -210.547247 
L 89.500946 -210.266155 
L 89.540772 -209.957525 
L 89.580607 -209.766421 
L 89.620526 -209.567969 
L 89.660307 -209.544494 
L 89.661647 -209.544305 
L 89.939493 -208.164198 
L 90.216716 -207.144053 
L 90.494629 -206.20208 
L 90.772537 -205.288676 
L 91.049807 -204.744749 
L 91.327218 -203.9793 
L 91.604524 -203.381807 
L 91.882 -202.833156 
L 92.159697 -202.362282 
L 92.437201 -201.972152 
L 92.714255 -201.503869 
L 92.99111 -201.108437 
L 93.267906 -200.708562 
L 93.546145 -200.491476 
L 93.822893 -200.229986 
L 94.099649 -199.922108 
L 94.37702 -199.548684 
L 94.65495 -199.38145 
L 94.932963 -199.154848 
L 95.210563 -199.153897 
L 95.488253 -199.011813 
L 95.765431 -198.975175 
L 96.043069 -198.911954 
L 96.32125 -198.720462 
L 96.598644 -198.63451 
L 96.875864 -198.408584 
L 97.153277 -198.246553 
L 97.431306 -198.164887 
L 97.708971 -198.131396 
L 97.988234 -197.99854 
L 98.266649 -197.961161 
L 98.544203 -198.000616 
L 98.82201 -197.781429 
L 99.099587 -197.769892 
L 99.377759 -197.735794 
L 99.655664 -197.691237 
L 99.933643 -197.558971 
L 100.212271 -197.495697 
L 100.489924 -197.380928 
L 100.766167 -197.439761 
L 101.043913 -197.519081 
L 101.320721 -197.288045 
L 101.598311 -197.33345 
L 101.876167 -197.345732 
L 102.153733 -197.310237 
L 102.432242 -197.3392 
L 102.710564 -197.500988 
L 102.987541 -197.407176 
L 103.263654 -197.570913 
L 103.540932 -197.335809 
L 103.817538 -197.357824 
L 104.094731 -197.386593 
L 104.372291 -197.394582 
L 104.649674 -197.321621 
L 104.927358 -197.348478 
L 105.205245 -197.4094 
L 105.478297 -197.28302 
L 105.750881 -197.263478 
L 106.024746 -197.162637 
L 106.303325 -197.29702 
L 106.580487 -197.312154 
L 106.857624 -197.303947 
L 107.13487 -197.190466 
L 107.412379 -197.2166 
L 107.689382 -197.222674 
L 107.967527 -197.153815 
L 108.245369 -197.203372 
L 108.523034 -197.380607 
L 108.799971 -197.381881 
L 109.077386 -197.247325 
L 109.355646 -197.225741 
L 109.633465 -197.097393 
L 109.911665 -196.974302 
L 110.189592 -196.929517 
L 110.468504 -197.120353 
L 110.746371 -197.052102 
L 111.023251 -197.202164 
L 111.300425 -197.106415 
L 111.577389 -196.981267 
L 111.855055 -197.283937 
L 112.133904 -197.220712 
L 112.411632 -197.200104 
L 112.689598 -197.356241 
L 112.967469 -197.262195 
L 113.24421 -197.289504 
L 113.522864 -197.245338 
L 113.800478 -197.235112 
L 114.07763 -197.262352 
L 114.355502 -197.14681 
L 114.634204 -197.221386 
L 114.911356 -197.150447 
L 115.188787 -197.178438 
L 115.466997 -197.262339 
L 115.74494 -197.117514 
L 116.022715 -197.102694 
L 116.300709 -196.965965 
L 116.577835 -197.053006 
L 116.855819 -197.247886 
L 117.134359 -197.176581 
L 117.412124 -197.220366 
L 117.690827 -197.046656 
L 117.970094 -197.034654 
L 118.248528 -196.9007 
L 118.526155 -196.892382 
L 118.804068 -197.027414 
L 119.08198 -196.988573 
L 119.360727 -196.979862 
L 119.65298 -197.001815 
L 119.933853 -196.936106 
L 120.211606 -197.09633 
L 120.489091 -197.055173 
L 120.766617 -197.102503 
L 121.044497 -197.182028 
L 121.322437 -197.319293 
L 121.599797 -197.238238 
L 121.878042 -197.025626 
L 122.156317 -197.131576 
L 122.43519 -196.976844 
L 122.713551 -197.060062 
L 122.991271 -197.030217 
L 123.267922 -197.042444 
L 123.545041 -197.074029 
L 123.822363 -197.049389 
L 124.0993 -197.088822 
L 124.377092 -197.005317 
L 124.655316 -196.957819 
L 124.932597 -197.042908 
L 125.211592 -197.035867 
L 125.490182 -197.009177 
L 125.768328 -197.041917 
L 126.047106 -196.983467 
L 126.326376 -197.052817 
L 126.60549 -197.089414 
L 126.884129 -197.079028 
L 127.163115 -197.063398 
L 127.441001 -196.888105 
L 127.719241 -197.0101 
L 127.997987 -197.036528 
L 128.275232 -197.080721 
L 128.553729 -197.03327 
L 128.832399 -197.047654 
L 129.110864 -196.998611 
L 129.389757 -197.072861 
L 129.668979 -196.915932 
L 129.947727 -196.992629 
L 130.22589 -197.100344 
L 130.504894 -197.017345 
L 130.782335 -197.040517 
L 131.060236 -196.961009 
L 131.337957 -197.080625 
L 131.615375 -196.969249 
L 131.894334 -197.038545 
L 132.173104 -197.065221 
L 132.45091 -197.039398 
L 132.729764 -197.055632 
L 133.007687 -197.119685 
L 133.284835 -196.957239 
L 133.564089 -196.862785 
L 133.843572 -196.997609 
L 133.843572 -197.7689 
L 133.843572 -197.7689 
L 133.564089 -197.801033 
L 133.284835 -198.054681 
L 133.007687 -197.914019 
L 132.729764 -197.91365 
L 132.45091 -197.929056 
L 132.173104 -198.146183 
L 131.894334 -198.053493 
L 131.615375 -197.926125 
L 131.337957 -198.012167 
L 131.060236 -198.032566 
L 130.782335 -197.923757 
L 130.504894 -198.017735 
L 130.22589 -197.872832 
L 129.947727 -197.84314 
L 129.668979 -197.794058 
L 129.389757 -197.723716 
L 129.110864 -197.802441 
L 128.832399 -197.717879 
L 128.553729 -197.908155 
L 128.275232 -197.853943 
L 127.997987 -197.840761 
L 127.719241 -197.875352 
L 127.441001 -197.911189 
L 127.163115 -197.828219 
L 126.884129 -197.880841 
L 126.60549 -198.003524 
L 126.326376 -197.980729 
L 126.047106 -197.976421 
L 125.768328 -197.919841 
L 125.490182 -197.942232 
L 125.211592 -197.956918 
L 124.932597 -197.759766 
L 124.655316 -197.84351 
L 124.377092 -197.912796 
L 124.0993 -198.016865 
L 123.822363 -197.962798 
L 123.545041 -197.941465 
L 123.267922 -197.934121 
L 122.991271 -197.909639 
L 122.713551 -197.867 
L 122.43519 -197.933276 
L 122.156317 -197.920371 
L 121.878042 -197.884902 
L 121.599797 -197.86575 
L 121.322437 -197.917097 
L 121.044497 -197.992709 
L 120.766617 -197.942433 
L 120.489091 -197.999705 
L 120.211606 -197.956149 
L 119.933853 -198.02052 
L 119.65298 -198.188036 
L 119.360727 -197.991376 
L 119.08198 -198.040218 
L 118.804068 -198.13285 
L 118.526155 -198.094565 
L 118.248528 -197.947996 
L 117.970094 -198.182796 
L 117.690827 -198.098589 
L 117.412124 -198.073086 
L 117.134359 -198.084897 
L 116.855819 -198.090685 
L 116.577835 -198.226547 
L 116.300709 -198.177749 
L 116.022715 -198.071575 
L 115.74494 -198.005447 
L 115.466997 -197.932683 
L 115.188787 -197.822163 
L 114.911356 -197.971373 
L 114.634204 -198.028179 
L 114.355502 -197.964535 
L 114.07763 -198.026422 
L 113.800478 -197.926062 
L 113.522864 -197.993284 
L 113.24421 -197.94981 
L 112.967469 -198.052572 
L 112.689598 -197.94075 
L 112.411632 -197.975703 
L 112.133904 -197.927696 
L 111.855055 -197.873801 
L 111.577389 -197.816142 
L 111.300425 -197.856858 
L 111.023251 -197.846153 
L 110.746371 -198.01924 
L 110.468504 -198.08369 
L 110.189592 -198.116227 
L 109.911665 -198.027627 
L 109.633465 -198.065513 
L 109.355646 -197.979181 
L 109.077386 -198.196948 
L 108.799971 -198.147849 
L 108.523034 -198.084024 
L 108.245369 -198.068184 
L 107.967527 -198.103575 
L 107.689382 -198.220111 
L 107.412379 -198.169331 
L 107.13487 -198.18957 
L 106.857624 -198.082943 
L 106.580487 -197.979719 
L 106.303325 -197.977311 
L 106.024746 -197.997688 
L 105.750881 -198.228409 
L 105.478297 -198.208328 
L 105.205245 -198.05319 
L 104.927358 -198.088761 
L 104.649674 -197.981674 
L 104.372291 -197.971186 
L 104.094731 -198.061468 
L 103.817538 -198.027031 
L 103.540932 -197.963651 
L 103.263654 -198.017333 
L 102.987541 -198.07243 
L 102.710564 -198.145215 
L 102.432242 -198.156372 
L 102.153733 -198.203403 
L 101.876167 -198.259203 
L 101.598311 -198.268001 
L 101.320721 -198.30866 
L 101.043913 -198.345895 
L 100.766167 -198.353763 
L 100.489924 -198.431024 
L 100.212271 -198.466135 
L 99.933643 -198.461995 
L 99.655664 -198.50217 
L 99.377759 -198.649095 
L 99.099587 -198.576536 
L 98.82201 -198.531611 
L 98.544203 -198.581377 
L 98.266649 -198.673973 
L 97.988234 -198.652855 
L 97.708971 -198.586703 
L 97.431306 -198.822387 
L 97.153277 -199.077694 
L 96.875864 -199.168091 
L 96.598644 -199.393723 
L 96.32125 -199.421527 
L 96.043069 -199.345561 
L 95.765431 -199.424471 
L 95.488253 -199.694784 
L 95.210563 -199.841178 
L 94.932963 -200.007422 
L 94.65495 -200.150016 
L 94.37702 -200.298034 
L 94.099649 -200.504884 
L 93.822893 -200.904026 
L 93.546145 -201.263787 
L 93.267906 -201.398749 
L 92.99111 -201.900203 
L 92.714255 -202.30255 
L 92.437201 -202.457252 
L 92.159697 -202.964839 
L 91.882 -203.46964 
L 91.604524 -204.175391 
L 91.327218 -204.708475 
L 91.049807 -205.438751 
L 90.772537 -206.032815 
L 90.494629 -206.968844 
L 90.216716 -207.81239 
L 89.939493 -208.897178 
L 89.661647 -210.349551 
L 89.660307 -210.357616 
L 89.620526 -210.554289 
L 89.580607 -210.820388 
L 89.540772 -211.059119 
L 89.500946 -211.335729 
L 89.462387 -211.484873 
L 89.422536 -211.717942 
L 89.382771 -211.919423 
L 89.343017 -212.29699 
L 89.303243 -212.549376 
L 89.263314 -212.816513 
L 89.223466 -213.004197 
L 89.183736 -213.242434 
L 89.145133 -213.548245 
L 89.105421 -213.839642 
L 89.065596 -214.111388 
L 89.025718 -214.313148 
L 88.985807 -214.669815 
L 88.946088 -214.900218 
L 88.906287 -215.207738 
L 88.866509 -215.58802 
L 88.826667 -215.907444 
L 88.788101 -216.18142 
L 88.74826 -216.385691 
L 88.708392 -216.748757 
L 88.668542 -216.964211 
L 88.628643 -217.311223 
L 88.588928 -217.539564 
L 88.549261 -217.859166 
L 88.509658 -218.220444 
L 88.471104 -218.414854 
L 88.431585 -218.73693 
L 88.391911 -219.066448 
L 88.352121 -219.420379 
L 88.312225 -219.763907 
L 88.272472 -220.109115 
L 88.23283 -220.387039 
L 88.193218 -220.711306 
L 88.154863 -221.076359 
L 88.115317 -221.297772 
L 88.07552 -221.638453 
L 88.035737 -221.914328 
L 87.995918 -222.165938 
L 87.956082 -222.506415 
L 87.916334 -222.746845 
L 87.876512 -223.057503 
L 87.836563 -223.384296 
L 87.797942 -223.739581 
L 87.758323 -224.121539 
L 87.718668 -224.403371 
L 87.678865 -224.672632 
L 87.639232 -224.977107 
L 87.599656 -225.316887 
L 87.55979 -225.664108 
L 87.519883 -226.025119 
L 87.481185 -226.317135 
L 87.441603 -226.661278 
L 87.40196 -227.04854 
L 87.362327 -227.596958 
L 87.322578 -229.068035 
z
"/>
    </defs>
    <g clip-path="url(#pb3dbaba321)">
     <use xlink:href="#mb3c39097e9" x="0" y="295.673094" style="fill: #e1e1e1"/>
    </g>
   </g>
   <g id="FillBetweenPolyCollection_2">
    <defs>
     <path id="m3efb94d819" d="M 87.322615 -229.175457 
L 87.322615 -229.075926 
L 87.363988 -228.820723 
L 87.405286 -228.244501 
L 87.446942 -227.673126 
L 87.488285 -227.301252 
L 87.528505 -227.062083 
L 87.569802 -226.868967 
L 87.611163 -226.703264 
L 87.652534 -226.547886 
L 87.693854 -226.400341 
L 87.7355 -226.270296 
L 87.776894 -226.213311 
L 87.818195 -226.204317 
L 87.858342 -226.185124 
L 87.899795 -226.144654 
L 87.941213 -226.059203 
L 87.982582 -225.934944 
L 88.023872 -225.800321 
L 88.065358 -225.65964 
L 88.10707 -225.514701 
L 88.148609 -225.366223 
L 88.190136 -225.244987 
L 88.230714 -225.138637 
L 88.271902 -225.025082 
L 88.313263 -224.906744 
L 88.354551 -224.804416 
L 88.395692 -224.707086 
L 88.436665 -224.618019 
L 88.47777 -224.531532 
L 88.519386 -224.437933 
L 88.559519 -224.331854 
L 88.600857 -224.214329 
L 88.642331 -224.095505 
L 88.683484 -223.98902 
L 88.724516 -223.890841 
L 88.765753 -223.793325 
L 88.80694 -223.690205 
L 88.84816 -223.575539 
L 88.888292 -223.482728 
L 88.9301 -223.400045 
L 88.971448 -223.33256 
L 89.013054 -223.278861 
L 89.054441 -223.224497 
L 89.096044 -223.140054 
L 89.137388 -223.041647 
L 89.178915 -222.937443 
L 89.220194 -222.831894 
L 89.260705 -222.717805 
L 89.302107 -222.587531 
L 89.343595 -222.474395 
L 89.385 -222.374792 
L 89.426802 -222.289335 
L 89.468162 -222.224223 
L 89.509578 -222.160517 
L 89.550875 -222.0747 
L 89.591364 -221.976412 
L 89.63248 -221.879555 
L 89.673913 -221.783999 
L 89.71568 -221.692559 
L 89.757085 -221.604235 
L 89.758465 -221.601394 
L 90.048226 -220.890703 
L 90.337118 -220.182889 
L 90.627019 -219.502236 
L 90.916993 -218.819809 
L 91.206524 -218.143961 
L 91.495355 -217.615384 
L 91.785131 -216.877703 
L 92.073828 -216.125591 
L 92.362056 -215.482946 
L 92.65275 -214.77827 
L 92.94237 -214.180466 
L 93.230751 -213.609252 
L 93.52087 -213.074724 
L 93.809953 -212.424377 
L 94.099006 -211.793713 
L 94.387666 -211.200817 
L 94.678275 -210.778607 
L 94.966774 -210.323419 
L 95.255049 -209.86927 
L 95.5448 -209.493553 
L 95.834039 -209.157651 
L 96.122481 -208.838246 
L 96.411646 -208.4357 
L 96.701742 -208.053298 
L 96.989612 -207.799069 
L 97.2773 -207.469942 
L 97.565781 -207.060497 
L 97.853797 -206.92925 
L 98.142154 -206.613897 
L 98.430768 -206.308246 
L 98.720888 -206.153149 
L 99.009958 -205.932182 
L 99.299266 -205.672396 
L 99.58787 -205.503735 
L 99.87738 -205.223087 
L 100.166864 -204.972416 
L 100.453457 -204.819781 
L 100.738722 -204.63143 
L 101.022767 -204.420877 
L 101.306013 -204.133686 
L 101.58994 -204.08706 
L 101.875254 -203.903239 
L 102.162256 -203.707921 
L 102.446191 -203.549274 
L 102.731687 -203.298769 
L 103.019041 -203.180259 
L 103.303032 -202.821143 
L 103.588377 -202.721816 
L 103.875058 -202.651291 
L 104.158886 -202.540311 
L 104.444893 -202.190188 
L 104.731795 -202.203015 
L 105.016246 -202.015683 
L 105.301354 -201.993258 
L 105.588446 -201.852938 
L 105.871621 -201.706391 
L 106.156189 -201.419125 
L 106.442243 -201.438976 
L 106.72555 -201.268767 
L 107.011481 -201.222367 
L 107.298186 -201.208365 
L 107.581298 -200.990902 
L 107.866778 -201.028013 
L 108.154331 -200.857467 
L 108.438321 -200.626847 
L 108.724717 -200.666091 
L 109.013203 -200.38721 
L 109.29656 -200.497053 
L 109.583244 -200.408554 
L 109.870224 -200.312608 
L 110.153914 -200.442132 
L 110.438265 -200.276259 
L 110.722449 -199.981261 
L 111.00753 -200.040543 
L 111.294756 -199.961926 
L 111.580776 -199.900014 
L 111.864235 -199.93223 
L 112.150283 -199.75172 
L 112.436722 -199.721268 
L 112.720935 -199.764278 
L 113.009663 -199.675119 
L 113.296085 -199.605368 
L 113.579876 -199.547738 
L 113.866082 -199.473327 
L 114.152338 -199.452294 
L 114.435843 -199.426811 
L 114.723313 -199.343104 
L 115.009985 -199.235672 
L 115.292812 -199.165786 
L 115.57921 -199.07765 
L 115.864391 -198.975359 
L 116.147584 -198.971727 
L 116.432871 -198.912887 
L 116.717754 -198.818111 
L 117.002014 -198.77041 
L 117.288237 -198.862263 
L 117.573952 -198.862436 
L 117.857152 -198.769313 
L 118.143327 -198.732021 
L 118.429261 -198.807622 
L 118.712741 -198.740785 
L 118.998261 -198.554712 
L 119.282859 -198.615427 
L 119.566864 -198.608541 
L 119.853552 -198.562169 
L 120.139736 -198.569413 
L 120.426452 -198.59337 
L 120.713211 -198.407447 
L 121.00015 -198.442255 
L 121.283876 -198.43649 
L 121.570737 -198.509528 
L 121.859757 -198.432038 
L 122.147356 -198.523179 
L 122.434189 -198.308334 
L 122.721528 -198.381136 
L 123.010385 -198.210796 
L 123.297773 -198.248121 
L 123.582386 -198.219269 
L 123.866619 -198.103522 
L 124.151492 -198.102862 
L 124.438266 -198.068452 
L 124.724332 -197.995671 
L 125.01074 -198.128702 
L 125.295934 -198.000931 
L 125.579017 -198.041487 
L 125.866113 -197.988265 
L 126.14973 -197.976268 
L 126.432431 -197.9786 
L 126.718553 -197.907592 
L 127.004119 -197.772961 
L 127.289906 -197.82787 
L 127.575387 -197.777069 
L 127.857902 -197.687513 
L 128.139972 -197.711133 
L 128.42584 -197.709151 
L 128.70944 -197.727577 
L 128.993709 -197.670178 
L 129.283483 -197.673426 
L 129.567636 -197.665329 
L 129.852688 -197.570699 
L 130.140417 -197.743482 
L 130.424521 -197.785762 
L 130.70927 -197.790004 
L 130.993389 -197.63011 
L 131.27896 -197.70527 
L 131.563984 -197.761696 
L 131.85161 -197.736101 
L 132.136455 -197.805749 
L 132.421869 -197.629859 
L 132.708956 -197.574396 
L 132.993125 -197.748656 
L 133.279758 -197.69795 
L 133.566562 -197.723728 
L 133.85002 -197.705671 
L 134.134708 -197.578008 
L 134.421521 -197.705674 
L 134.70486 -197.726351 
L 134.989935 -197.697987 
L 135.279105 -197.801654 
L 135.279105 -198.516028 
L 135.279105 -198.516028 
L 134.989935 -198.502777 
L 134.70486 -198.6279 
L 134.421521 -198.588532 
L 134.134708 -198.599699 
L 133.85002 -198.646192 
L 133.566562 -198.636467 
L 133.279758 -198.622967 
L 132.993125 -198.644863 
L 132.708956 -198.7663 
L 132.421869 -198.742128 
L 132.136455 -198.578843 
L 131.85161 -198.467571 
L 131.563984 -198.692198 
L 131.27896 -198.637083 
L 130.993389 -198.647006 
L 130.70927 -198.67597 
L 130.424521 -198.789519 
L 130.140417 -198.666616 
L 129.852688 -198.738331 
L 129.567636 -198.892613 
L 129.283483 -198.803443 
L 128.993709 -198.902938 
L 128.70944 -198.885043 
L 128.42584 -198.875698 
L 128.139972 -198.93713 
L 127.857902 -198.700902 
L 127.575387 -198.823494 
L 127.289906 -198.893432 
L 127.004119 -198.893197 
L 126.718553 -198.853826 
L 126.432431 -199.13376 
L 126.14973 -198.905536 
L 125.866113 -199.085888 
L 125.579017 -199.030012 
L 125.295934 -199.124886 
L 125.01074 -199.091488 
L 124.724332 -198.948764 
L 124.438266 -199.22983 
L 124.151492 -199.107865 
L 123.866619 -199.071696 
L 123.582386 -199.083948 
L 123.297773 -199.13521 
L 123.010385 -199.300707 
L 122.721528 -199.236443 
L 122.434189 -199.327794 
L 122.147356 -199.366627 
L 121.859757 -199.361356 
L 121.570737 -199.385985 
L 121.283876 -199.396942 
L 121.00015 -199.345677 
L 120.713211 -199.410827 
L 120.426452 -199.371159 
L 120.139736 -199.346668 
L 119.853552 -199.479854 
L 119.566864 -199.536415 
L 119.282859 -199.416051 
L 118.998261 -199.404983 
L 118.712741 -199.549128 
L 118.429261 -199.528333 
L 118.143327 -199.653362 
L 117.857152 -199.691586 
L 117.573952 -199.830677 
L 117.288237 -199.699775 
L 117.002014 -199.861631 
L 116.717754 -199.892716 
L 116.432871 -199.865961 
L 116.147584 -199.976702 
L 115.864391 -200.105329 
L 115.57921 -199.939499 
L 115.292812 -200.056316 
L 115.009985 -200.089873 
L 114.723313 -200.042174 
L 114.435843 -200.259856 
L 114.152338 -200.111776 
L 113.866082 -200.201929 
L 113.579876 -200.298317 
L 113.296085 -200.347753 
L 113.009663 -200.417112 
L 112.720935 -200.3626 
L 112.436722 -200.530546 
L 112.150283 -200.583324 
L 111.864235 -200.575879 
L 111.580776 -200.667124 
L 111.294756 -200.690938 
L 111.00753 -200.784421 
L 110.722449 -200.795485 
L 110.438265 -200.82976 
L 110.153914 -200.922173 
L 109.870224 -200.918792 
L 109.583244 -201.042132 
L 109.29656 -201.049243 
L 109.013203 -201.151796 
L 108.724717 -201.40938 
L 108.438321 -201.423928 
L 108.154331 -201.431593 
L 107.866778 -201.733045 
L 107.581298 -201.719457 
L 107.298186 -201.772732 
L 107.011481 -201.880156 
L 106.72555 -202.032097 
L 106.442243 -202.203126 
L 106.156189 -202.288431 
L 105.871621 -202.451526 
L 105.588446 -202.656995 
L 105.301354 -202.792192 
L 105.016246 -202.926399 
L 104.731795 -203.08887 
L 104.444893 -203.2876 
L 104.158886 -203.426114 
L 103.875058 -203.651781 
L 103.588377 -203.820298 
L 103.303032 -203.668716 
L 103.019041 -204.043661 
L 102.731687 -204.164135 
L 102.446191 -204.258066 
L 102.162256 -204.302495 
L 101.875254 -204.46677 
L 101.58994 -204.813776 
L 101.306013 -204.984647 
L 101.022767 -205.188578 
L 100.738722 -205.342578 
L 100.453457 -205.645524 
L 100.166864 -205.880563 
L 99.87738 -206.064187 
L 99.58787 -206.190379 
L 99.299266 -206.544641 
L 99.009958 -206.743006 
L 98.720888 -206.979812 
L 98.430768 -207.18867 
L 98.142154 -207.488546 
L 97.853797 -207.824903 
L 97.565781 -208.059685 
L 97.2773 -208.457176 
L 96.989612 -208.759387 
L 96.701742 -209.091669 
L 96.411646 -209.435756 
L 96.122481 -209.79229 
L 95.834039 -210.159373 
L 95.5448 -210.478379 
L 95.255049 -211.017362 
L 94.966774 -211.607508 
L 94.678275 -212.157186 
L 94.387666 -212.583367 
L 94.099006 -213.121076 
L 93.809953 -213.761439 
L 93.52087 -214.347409 
L 93.230751 -214.876218 
L 92.94237 -215.511742 
L 92.65275 -215.932334 
L 92.362056 -216.754754 
L 92.073828 -217.357421 
L 91.785131 -217.887873 
L 91.495355 -218.51164 
L 91.206524 -219.080854 
L 90.916993 -219.78272 
L 90.627019 -220.378792 
L 90.337118 -220.960106 
L 90.048226 -221.625446 
L 89.758465 -222.235754 
L 89.757085 -222.23776 
L 89.71568 -222.310552 
L 89.673913 -222.395203 
L 89.63248 -222.487787 
L 89.591364 -222.596331 
L 89.550875 -222.696019 
L 89.509578 -222.791556 
L 89.468162 -222.879837 
L 89.426802 -222.955916 
L 89.385 -223.021609 
L 89.343595 -223.112606 
L 89.302107 -223.214927 
L 89.260705 -223.294469 
L 89.220194 -223.370746 
L 89.178915 -223.441146 
L 89.137388 -223.513195 
L 89.096044 -223.58323 
L 89.054441 -223.659572 
L 89.013054 -223.747862 
L 88.971448 -223.853526 
L 88.9301 -223.960933 
L 88.888292 -224.086774 
L 88.84816 -224.216899 
L 88.80694 -224.335836 
L 88.765753 -224.446036 
L 88.724516 -224.54831 
L 88.683484 -224.647411 
L 88.642331 -224.751609 
L 88.600857 -224.865182 
L 88.559519 -224.986996 
L 88.519386 -225.088027 
L 88.47777 -225.174833 
L 88.436665 -225.248928 
L 88.395692 -225.298601 
L 88.354551 -225.348417 
L 88.313263 -225.401787 
L 88.271902 -225.47126 
L 88.230714 -225.566659 
L 88.190136 -225.689133 
L 88.148609 -225.815518 
L 88.10707 -225.929696 
L 88.065358 -226.057931 
L 88.023872 -226.194422 
L 87.982582 -226.334081 
L 87.941213 -226.447209 
L 87.899795 -226.523063 
L 87.858342 -226.554973 
L 87.818195 -226.52956 
L 87.776894 -226.501991 
L 87.7355 -226.515885 
L 87.693854 -226.593997 
L 87.652534 -226.741602 
L 87.611163 -226.934765 
L 87.569802 -227.118191 
L 87.528505 -227.292355 
L 87.488285 -227.50743 
L 87.446942 -227.866393 
L 87.405286 -228.388043 
L 87.363988 -228.912672 
L 87.322615 -229.175457 
z
"/>
    </defs>
    <g clip-path="url(#pb3dbaba321)">
     <use xlink:href="#m3efb94d819" x="0" y="295.673094" style="fill: #d5e7ea"/>
    </g>
   </g>
   <g id="FillBetweenPolyCollection_3">
    <defs>
     <path id="mc8c03d75d3" d="M 87.323428 -229.07654 
L 87.323428 -228.986912 
L 87.393422 -227.35057 
L 87.463815 -225.95214 
L 87.534322 -223.939252 
L 87.604241 -222.41345 
L 87.67249 -219.956009 
L 87.743249 -217.319784 
L 87.813638 -215.871729 
L 87.884547 -213.309326 
L 87.95489 -210.611935 
L 88.025886 -208.561944 
L 88.096429 -207.678207 
L 88.165988 -206.430321 
L 88.234016 -204.979638 
L 88.303335 -204.014968 
L 88.373917 -202.802792 
L 88.444754 -201.886291 
L 88.514907 -201.556286 
L 88.584949 -200.343966 
L 88.654444 -199.359979 
L 88.724025 -198.98698 
L 88.794791 -197.846633 
L 88.863429 -197.075183 
L 88.934593 -195.730404 
L 89.004198 -195.834172 
L 89.074014 -195.020402 
L 89.144338 -194.157748 
L 89.214206 -194.221194 
L 89.285088 -193.373486 
L 89.355847 -192.446678 
L 89.423546 -191.768955 
L 89.493794 -191.155088 
L 89.563579 -190.65747 
L 89.633321 -190.116614 
L 89.704152 -189.921156 
L 89.774554 -189.338475 
L 89.845399 -188.397712 
L 89.915081 -187.940716 
L 89.982748 -187.090993 
L 90.052958 -186.14622 
L 90.123423 -186.195427 
L 90.194421 -185.633036 
L 90.264955 -185.064176 
L 90.334692 -184.655654 
L 90.404963 -183.741094 
L 90.474775 -183.816749 
L 90.545765 -182.932693 
L 90.614156 -182.66758 
L 90.684685 -182.063177 
L 90.755083 -180.909839 
L 90.824707 -180.869055 
L 90.894418 -180.202939 
L 90.964703 -179.862706 
L 91.034629 -179.203101 
L 91.10513 -179.299361 
L 91.173216 -179.274339 
L 91.243173 -178.492893 
L 91.313348 -177.500993 
L 91.383228 -177.279155 
L 91.454189 -176.882196 
L 91.456405 -176.906257 
L 91.947147 -173.990244 
L 92.439667 -169.789945 
L 92.9303 -166.041701 
L 93.42022 -164.147225 
L 93.910517 -158.462495 
L 94.403359 -156.644858 
L 94.894689 -153.912488 
L 95.387859 -150.59991 
L 95.877063 -147.393597 
L 96.371055 -144.50372 
L 96.860903 -140.847054 
L 97.354269 -138.34768 
L 97.844654 -136.721488 
L 98.335763 -131.682774 
L 98.826155 -126.553557 
L 99.317921 -123.724391 
L 99.805449 -119.767221 
L 100.294605 -119.65585 
L 100.783778 -119.686413 
L 101.273763 -116.748545 
L 101.762907 -116.364949 
L 102.250991 -106.820765 
L 102.740766 -109.828605 
L 103.231942 -113.775738 
L 103.722908 -87.480207 
L 104.216365 -107.780753 
L 104.712718 -101.058312 
L 105.207326 -100.059005 
L 105.704669 -89.41419 
L 106.203016 -86.025617 
L 106.701039 -90.220786 
L 107.197964 -74.097402 
L 107.694431 -78.234774 
L 108.184106 -87.493895 
L 108.672335 -72.020004 
L 109.162053 -84.455676 
L 109.652097 -90.6677 
L 110.142621 -83.332654 
L 110.637541 -89.089779 
L 111.148376 -82.647732 
L 111.645667 -78.057114 
L 112.144035 -96.254393 
L 112.642171 -64.373718 
L 113.140073 -83.447633 
L 113.638756 -73.392977 
L 114.137091 -70.144938 
L 114.634514 -72.348972 
L 115.132726 -69.506312 
L 115.631316 -66.894627 
L 116.129059 -84.023911 
L 116.626882 -75.237144 
L 117.124924 -79.770018 
L 117.621975 -81.459488 
L 118.119576 -67.271982 
L 118.618094 -79.383788 
L 119.114191 -86.462811 
L 119.611717 -83.132633 
L 120.108349 -69.89981 
L 120.606195 -77.945156 
L 121.104535 -68.414581 
L 121.601716 -76.24913 
L 122.100039 -88.980608 
L 122.596909 -62.345181 
L 123.09475 -77.166101 
L 123.590492 -71.753481 
L 124.089125 -75.396698 
L 124.587692 -73.873678 
L 125.086558 -68.114959 
L 125.584619 -89.941471 
L 126.083133 -77.283662 
L 126.580791 -66.202673 
L 127.079854 -65.881179 
L 127.578366 -60.985515 
L 128.076408 -74.083722 
L 128.574314 -76.349502 
L 129.073052 -77.149492 
L 129.57111 -88.069285 
L 130.069125 -82.498636 
L 130.566428 -76.976586 
L 131.063216 -78.070223 
L 131.559816 -77.27376 
L 132.057312 -82.223316 
L 132.555912 -70.717649 
L 133.05385 -83.170489 
L 133.551924 -73.361257 
L 134.05041 -83.313265 
L 134.548587 -62.680148 
L 135.047281 -72.824143 
L 135.545711 -79.689123 
L 136.043788 -71.303724 
L 136.541115 -73.731609 
L 137.036687 -58.218903 
L 137.534982 -55.770521 
L 138.03233 -67.920489 
L 138.528588 -71.788037 
L 139.026473 -61.423097 
L 139.524708 -75.140142 
L 140.022373 -73.120765 
L 140.521892 -60.238268 
L 141.020336 -64.166068 
L 141.519188 -73.819811 
L 142.018305 -85.590001 
L 142.515954 -78.67477 
L 143.01448 -63.758353 
L 143.511023 -50.74273 
L 144.00932 -70.274455 
L 144.507876 -53.447758 
L 145.006366 -81.305637 
L 145.504352 -76.361567 
L 146.003385 -64.56016 
L 146.501504 -69.071819 
L 147.000221 -61.43494 
L 147.498417 -65.269323 
L 147.99662 -68.570444 
L 148.49529 -71.530847 
L 148.993789 -52.287616 
L 149.491619 -71.307706 
L 149.990505 -79.060324 
L 150.489227 -86.125378 
L 150.98598 -86.102939 
L 151.484676 -82.589795 
L 151.983215 -75.103049 
L 152.483211 -68.013909 
L 152.982064 -59.126627 
L 153.47992 -77.260566 
L 153.976275 -69.302217 
L 154.473714 -55.063808 
L 154.970625 -67.274986 
L 155.468902 -60.950515 
L 155.967493 -90.129495 
L 156.465565 -79.593436 
L 156.965096 -78.772379 
L 157.463492 -74.031504 
L 157.962735 -88.245771 
L 158.460541 -82.46517 
L 158.959826 -88.451086 
L 159.458248 -79.262089 
L 159.956387 -72.750171 
L 160.454084 -86.69752 
L 160.951726 -83.294317 
L 161.449398 -74.680663 
L 161.947312 -77.351254 
L 162.446103 -70.550412 
L 162.944198 -77.205569 
L 163.442661 -79.059794 
L 163.941547 -60.209157 
L 164.44109 -62.796972 
L 164.939704 -76.086862 
L 165.436429 -75.518468 
L 165.933766 -76.714568 
L 166.430818 -72.800241 
L 166.92837 -63.268072 
L 167.426234 -69.839037 
L 167.924872 -73.980322 
L 168.422732 -81.495845 
L 168.920956 -70.283907 
L 169.419025 -60.606381 
L 169.91773 -64.372627 
L 170.416002 -75.340097 
L 170.416002 -115.144621 
L 170.416002 -115.144621 
L 169.91773 -114.589373 
L 169.419025 -113.881651 
L 168.920956 -113.562987 
L 168.422732 -111.349393 
L 167.924872 -106.120975 
L 167.426234 -112.259443 
L 166.92837 -110.470974 
L 166.430818 -111.66445 
L 165.933766 -112.558941 
L 165.436429 -118.184099 
L 164.939704 -113.730438 
L 164.44109 -116.081726 
L 163.941547 -106.62514 
L 163.442661 -113.544096 
L 162.944198 -111.989251 
L 162.446103 -111.846466 
L 161.947312 -112.676029 
L 161.449398 -117.79626 
L 160.951726 -118.527279 
L 160.454084 -109.404539 
L 159.956387 -113.297572 
L 159.458248 -117.435695 
L 158.959826 -118.341455 
L 158.460541 -113.472346 
L 157.962735 -114.714549 
L 157.463492 -113.734408 
L 156.965096 -119.333525 
L 156.465565 -119.219012 
L 155.967493 -114.414477 
L 155.468902 -105.481861 
L 154.970625 -104.187206 
L 154.473714 -112.064752 
L 153.976275 -112.731548 
L 153.47992 -113.752561 
L 152.982064 -111.608383 
L 152.483211 -108.702451 
L 151.983215 -116.209595 
L 151.484676 -116.404772 
L 150.98598 -119.06146 
L 150.489227 -115.489914 
L 149.990505 -112.837196 
L 149.491619 -116.812929 
L 148.993789 -112.899845 
L 148.49529 -113.28672 
L 147.99662 -104.088327 
L 147.498417 -113.139793 
L 147.000221 -106.883854 
L 146.501504 -114.652665 
L 146.003385 -110.66961 
L 145.504352 -112.804382 
L 145.006366 -110.209799 
L 144.507876 -110.052911 
L 144.00932 -112.091035 
L 143.511023 -110.248851 
L 143.01448 -111.797906 
L 142.515954 -114.935367 
L 142.018305 -117.675769 
L 141.519188 -110.692871 
L 141.020336 -112.430947 
L 140.521892 -105.146012 
L 140.022373 -111.36244 
L 139.524708 -113.838712 
L 139.026473 -112.09228 
L 138.528588 -110.713089 
L 138.03233 -111.489991 
L 137.534982 -110.008542 
L 137.036687 -112.386807 
L 136.541115 -105.589702 
L 136.043788 -110.714334 
L 135.545711 -110.530487 
L 135.047281 -111.056751 
L 134.548587 -111.987159 
L 134.05041 -113.326719 
L 133.551924 -111.341408 
L 133.05385 -115.995473 
L 132.555912 -107.205899 
L 132.057312 -115.825175 
L 131.559816 -117.348583 
L 131.063216 -111.970194 
L 130.566428 -117.224787 
L 130.069125 -119.99546 
L 129.57111 -115.77255 
L 129.073052 -115.98654 
L 128.574314 -108.805079 
L 128.076408 -108.674476 
L 127.578366 -110.083667 
L 127.079854 -114.137869 
L 126.580791 -110.039906 
L 126.083133 -113.618481 
L 125.584619 -112.211218 
L 125.086558 -110.369658 
L 124.587692 -113.959668 
L 124.089125 -118.032949 
L 123.590492 -107.80221 
L 123.09475 -110.060511 
L 122.596909 -119.192551 
L 122.100039 -115.731927 
L 121.601716 -113.344487 
L 121.104535 -116.355178 
L 120.606195 -119.144733 
L 120.108349 -120.481193 
L 119.611717 -117.740566 
L 119.114191 -118.542747 
L 118.618094 -111.35256 
L 118.119576 -116.590788 
L 117.621975 -114.297452 
L 117.124924 -117.359699 
L 116.626882 -118.548765 
L 116.129059 -117.665389 
L 115.631316 -112.354506 
L 115.132726 -115.024156 
L 114.634514 -113.229572 
L 114.137091 -115.470624 
L 113.638756 -113.714972 
L 113.140073 -112.378004 
L 112.642171 -114.967271 
L 112.144035 -115.770317 
L 111.645667 -110.569266 
L 111.148376 -119.332509 
L 110.637541 -119.580149 
L 110.142621 -117.816489 
L 109.652097 -118.279978 
L 109.162053 -124.880193 
L 108.672335 -116.20691 
L 108.184106 -121.219123 
L 107.694431 -121.277036 
L 107.197964 -121.413972 
L 106.701039 -122.77484 
L 106.203016 -123.086198 
L 105.704669 -118.542397 
L 105.207326 -123.832635 
L 104.712718 -129.952837 
L 104.216365 -127.290819 
L 103.722908 -127.180097 
L 103.231942 -128.135005 
L 102.740766 -130.252171 
L 102.250991 -133.046175 
L 101.762907 -133.371345 
L 101.273763 -133.305846 
L 100.783778 -135.785424 
L 100.294605 -139.370995 
L 99.805449 -137.310206 
L 99.317921 -138.103108 
L 98.826155 -141.859924 
L 98.335763 -144.497091 
L 97.844654 -145.664778 
L 97.354269 -148.779493 
L 96.860903 -151.762137 
L 96.371055 -152.003361 
L 95.877063 -155.865266 
L 95.387859 -157.85204 
L 94.894689 -159.24104 
L 94.403359 -162.228051 
L 93.910517 -166.214592 
L 93.42022 -168.646097 
L 92.9303 -171.085845 
L 92.439667 -173.722164 
L 91.947147 -176.4617 
L 91.456405 -179.252594 
L 91.454189 -179.257289 
L 91.383228 -179.777836 
L 91.313348 -180.288214 
L 91.243173 -180.98405 
L 91.173216 -181.797466 
L 91.10513 -182.488563 
L 91.034629 -182.571676 
L 90.964703 -182.838224 
L 90.894418 -182.938221 
L 90.824707 -183.195627 
L 90.755083 -184.461173 
L 90.684685 -184.940327 
L 90.614156 -185.185478 
L 90.545765 -185.295589 
L 90.474775 -185.783449 
L 90.404963 -186.195922 
L 90.334692 -186.735266 
L 90.264955 -186.947671 
L 90.194421 -187.780572 
L 90.123423 -188.910031 
L 90.052958 -188.711504 
L 89.982748 -189.562013 
L 89.915081 -190.116534 
L 89.845399 -189.946678 
L 89.774554 -190.78989 
L 89.704152 -191.664165 
L 89.633321 -192.04101 
L 89.563579 -192.27826 
L 89.493794 -192.899521 
L 89.423546 -193.506209 
L 89.355847 -193.652536 
L 89.285088 -194.538987 
L 89.214206 -195.394745 
L 89.144338 -195.769324 
L 89.074014 -196.279936 
L 89.004198 -197.071346 
L 88.934593 -197.431984 
L 88.863429 -198.142914 
L 88.794791 -199.3011 
L 88.724025 -200.104034 
L 88.654444 -200.48509 
L 88.584949 -201.511328 
L 88.514907 -202.72043 
L 88.444754 -203.187006 
L 88.373917 -204.118456 
L 88.303335 -205.242511 
L 88.234016 -205.841284 
L 88.165988 -207.469337 
L 88.096429 -208.704152 
L 88.025886 -209.909339 
L 87.95489 -212.03896 
L 87.884547 -214.338778 
L 87.813638 -216.750343 
L 87.743249 -218.172305 
L 87.67249 -220.739504 
L 87.604241 -223.06816 
L 87.534322 -224.474274 
L 87.463815 -226.344221 
L 87.393422 -227.597484 
L 87.323428 -229.07654 
z
"/>
    </defs>
    <g clip-path="url(#pb3dbaba321)">
     <use xlink:href="#mc8c03d75d3" x="0" y="295.673094" style="fill: #e9d8e6"/>
    </g>
   </g>
   <g id="FillBetweenPolyCollection_4">
    <defs>
     <path id="m5ad5c52046" d="M 87.328086 -228.968861 
L 87.328086 -228.816283 
L 87.554287 -222.847656 
L 87.78008 -217.641745 
L 88.005547 -212.225251 
L 88.232946 -206.463795 
L 88.452395 -201.768111 
L 88.677605 -197.70958 
L 88.903195 -194.100976 
L 89.129324 -190.145479 
L 89.354814 -186.681531 
L 89.580275 -183.320082 
L 89.806335 -179.278467 
L 90.032651 -175.855394 
L 90.252136 -172.781003 
L 90.477077 -169.754982 
L 90.701844 -165.795165 
L 90.927264 -162.571847 
L 91.153031 -158.716288 
L 91.379196 -154.614823 
L 91.60565 -149.951627 
L 91.83186 -146.287477 
L 92.057953 -144.366316 
L 92.278502 -141.129411 
L 92.503892 -139.228009 
L 92.729838 -135.159247 
L 92.956123 -131.524255 
L 93.182518 -128.840694 
L 93.408368 -126.875238 
L 93.634597 -126.594732 
L 93.860875 -122.94778 
L 94.079293 -118.538661 
L 94.30515 -117.309375 
L 94.531606 -107.628704 
L 94.757759 -102.605274 
L 94.983715 -97.771409 
L 95.209775 -98.095384 
L 95.435771 -93.616487 
L 95.660804 -90.494072 
L 95.880101 -93.051577 
L 96.106248 -92.489031 
L 96.332273 -89.384067 
L 96.558186 -87.310393 
L 96.784301 -85.492546 
L 97.010693 -85.817058 
L 97.235692 -87.717799 
L 97.461706 -81.233027 
L 97.687708 -80.95159 
L 97.90697 -76.666516 
L 98.133217 -80.968484 
L 98.359008 -78.876255 
L 98.585043 -81.60186 
L 98.811178 -81.063186 
L 99.037434 -78.30147 
L 99.263514 -77.883522 
L 99.489169 -85.414996 
L 99.708761 -75.036478 
L 99.935236 -78.401115 
L 100.16136 -75.232078 
L 100.387777 -74.359558 
L 100.613708 -79.225499 
L 100.620572 -75.590318 
L 102.207516 -82.880377 
L 103.79467 -79.557238 
L 105.383814 -78.61376 
L 106.969239 -79.975644 
L 108.557493 -84.457593 
L 110.142699 -79.478867 
L 111.72877 -83.755296 
L 113.315919 -75.018558 
L 114.900807 -77.012497 
L 116.487573 -81.678802 
L 118.0763 -86.836645 
L 119.666513 -82.483182 
L 121.249959 -86.507225 
L 122.83581 -78.055943 
L 124.421534 -83.87235 
L 126.003095 -75.630508 
L 127.592507 -79.886641 
L 129.180632 -76.467614 
L 130.768707 -84.908992 
L 132.357575 -78.167399 
L 133.945593 -80.620122 
L 135.533259 -81.437309 
L 137.123866 -78.151979 
L 138.711214 -83.01068 
L 140.300755 -86.92239 
L 141.889797 -83.454502 
L 143.477165 -82.651035 
L 145.065372 -86.48177 
L 146.655078 -80.673283 
L 148.244811 -79.61331 
L 149.833575 -85.288612 
L 151.419734 -87.030813 
L 153.006724 -86.221796 
L 154.596208 -81.694525 
L 156.185518 -81.152494 
L 157.773768 -81.396304 
L 159.356948 -83.306762 
L 160.946431 -79.611486 
L 162.534288 -79.691755 
L 164.116986 -78.631694 
L 165.703812 -82.87112 
L 167.291523 -80.109266 
L 168.879733 -83.964723 
L 170.468446 -84.942194 
L 172.056599 -86.146079 
L 173.644092 -79.105548 
L 175.231901 -84.34972 
L 176.81936 -87.577875 
L 178.407069 -87.488947 
L 179.993204 -83.459499 
L 181.581355 -76.92399 
L 183.169756 -88.832743 
L 184.757715 -82.37503 
L 186.34631 -80.530785 
L 187.933996 -75.791553 
L 189.523008 -77.453675 
L 191.111724 -88.574036 
L 192.699921 -85.625936 
L 194.286791 -82.569625 
L 195.873579 -88.894663 
L 197.456428 -87.261519 
L 199.045124 -83.888271 
L 200.63552 -84.684998 
L 202.230472 -84.935105 
L 203.820126 -81.299246 
L 205.409316 -82.888158 
L 206.997903 -76.063791 
L 208.587998 -83.146155 
L 210.179268 -79.250215 
L 211.769073 -82.844867 
L 213.359079 -77.808194 
L 214.952292 -82.21075 
L 216.544283 -87.690574 
L 218.13325 -84.568824 
L 219.722271 -83.772656 
L 221.312319 -83.009969 
L 222.899896 -84.723193 
L 224.487542 -84.220434 
L 226.074899 -85.567917 
L 227.6644 -82.457724 
L 229.255424 -81.559615 
L 230.844142 -87.609015 
L 232.433584 -89.334816 
L 234.021282 -79.028189 
L 235.607778 -78.691867 
L 237.199288 -87.099993 
L 238.788178 -84.289175 
L 240.376927 -89.228555 
L 241.965254 -86.722801 
L 243.555875 -81.390906 
L 245.140067 -82.893699 
L 246.727943 -90.699871 
L 248.316021 -78.142719 
L 249.903402 -73.426258 
L 251.493493 -79.722051 
L 253.082772 -84.760173 
L 254.670812 -86.034593 
L 256.258507 -84.385577 
L 257.848905 -83.418985 
L 259.434101 -79.652229 
L 261.022634 -78.17855 
L 262.608959 -86.825009 
L 264.197618 -81.71797 
L 265.786083 -82.449002 
L 267.374608 -77.583473 
L 268.964169 -78.50156 
L 270.553013 -87.43132 
L 272.141906 -82.746024 
L 273.731072 -75.319881 
L 275.32005 -87.126209 
L 276.908103 -81.270875 
L 278.496439 -81.034866 
L 280.086383 -83.656873 
L 281.677262 -81.778962 
L 283.26622 -79.501356 
L 284.855185 -82.306945 
L 286.445568 -82.168099 
L 288.034973 -83.602117 
L 289.622313 -71.025458 
L 291.206689 -84.030671 
L 292.796923 -82.843713 
L 294.389249 -84.208958 
L 295.978549 -78.191068 
L 297.568972 -81.587973 
L 299.1584 -83.556081 
L 300.748939 -82.447777 
L 302.339503 -79.479219 
L 303.928404 -77.259652 
L 305.517762 -85.058638 
L 307.106267 -88.607091 
L 308.696721 -82.213299 
L 310.285118 -85.546043 
L 311.873495 -86.157621 
L 313.463421 -77.749393 
L 315.052384 -76.915869 
L 316.64122 -75.484652 
L 318.229079 -79.352829 
L 319.817635 -77.406811 
L 321.408452 -78.352875 
L 322.997979 -84.985506 
L 324.588364 -87.759994 
L 326.175635 -82.719121 
L 327.762948 -79.495069 
L 329.349413 -71.902949 
L 330.937828 -77.764989 
L 332.524326 -88.561064 
L 334.112361 -82.469014 
L 335.701889 -84.352353 
L 337.287277 -80.263378 
L 338.876119 -90.124492 
L 340.462381 -81.722887 
L 342.046563 -89.207473 
L 343.632157 -79.479488 
L 345.216825 -81.838424 
L 346.80302 -85.973545 
L 348.392318 -84.669938 
L 349.982461 -83.63774 
L 351.584494 -77.991172 
L 353.174141 -82.986258 
L 353.174141 -102.213036 
L 353.174141 -102.213036 
L 351.584494 -111.643339 
L 349.982461 -111.237117 
L 348.392318 -113.397606 
L 346.80302 -107.964266 
L 345.216825 -104.610318 
L 343.632157 -110.960973 
L 342.046563 -110.376977 
L 340.462381 -116.185095 
L 338.876119 -110.702112 
L 337.287277 -107.049676 
L 335.701889 -110.748513 
L 334.112361 -110.045979 
L 332.524326 -109.202033 
L 330.937828 -112.738688 
L 329.349413 -104.860632 
L 327.762948 -105.292426 
L 326.175635 -104.46317 
L 324.588364 -110.230559 
L 322.997979 -110.986261 
L 321.408452 -113.244211 
L 319.817635 -112.493426 
L 318.229079 -106.795129 
L 316.64122 -109.50692 
L 315.052384 -98.49432 
L 313.463421 -99.618805 
L 311.873495 -105.740589 
L 310.285118 -101.53976 
L 308.696721 -99.467962 
L 307.106267 -104.112617 
L 305.517762 -107.277599 
L 303.928404 -112.007341 
L 302.339503 -111.309215 
L 300.748939 -111.285134 
L 299.1584 -111.067939 
L 297.568972 -108.564103 
L 295.978549 -108.333826 
L 294.389249 -103.261147 
L 292.796923 -105.540693 
L 291.206689 -110.370377 
L 289.622313 -104.124482 
L 288.034973 -108.110827 
L 286.445568 -108.951366 
L 284.855185 -115.329275 
L 283.26622 -110.970248 
L 281.677262 -106.257628 
L 280.086383 -107.888766 
L 278.496439 -110.220369 
L 276.908103 -105.185515 
L 275.32005 -102.538385 
L 273.731072 -107.687935 
L 272.141906 -108.60962 
L 270.553013 -112.483503 
L 268.964169 -102.124967 
L 267.374608 -107.388654 
L 265.786083 -99.754503 
L 264.197618 -109.136324 
L 262.608959 -110.921108 
L 261.022634 -109.661872 
L 259.434101 -106.258179 
L 257.848905 -97.93148 
L 256.258507 -103.919274 
L 254.670812 -105.133784 
L 253.082772 -109.163093 
L 251.493493 -102.453919 
L 249.903402 -103.407778 
L 248.316021 -104.234049 
L 246.727943 -113.044432 
L 245.140067 -114.193069 
L 243.555875 -108.308161 
L 241.965254 -115.24695 
L 240.376927 -113.674181 
L 238.788178 -105.033654 
L 237.199288 -106.359662 
L 235.607778 -110.478602 
L 234.021282 -102.303638 
L 232.433584 -109.424466 
L 230.844142 -106.907193 
L 229.255424 -106.68752 
L 227.6644 -105.478439 
L 226.074899 -102.966804 
L 224.487542 -103.483631 
L 222.899896 -108.613717 
L 221.312319 -106.843535 
L 219.722271 -107.504884 
L 218.13325 -112.720399 
L 216.544283 -109.790934 
L 214.952292 -108.559381 
L 213.359079 -106.857213 
L 211.769073 -107.306125 
L 210.179268 -113.278245 
L 208.587998 -111.895391 
L 206.997903 -107.066866 
L 205.409316 -105.197487 
L 203.820126 -108.697802 
L 202.230472 -105.368001 
L 200.63552 -104.906071 
L 199.045124 -106.586966 
L 197.456428 -105.928481 
L 195.873579 -107.470106 
L 194.286791 -104.053803 
L 192.699921 -103.698117 
L 191.111724 -106.93385 
L 189.523008 -102.242615 
L 187.933996 -108.71596 
L 186.34631 -103.286095 
L 184.757715 -110.606395 
L 183.169756 -114.887371 
L 181.581355 -105.821527 
L 179.993204 -108.383646 
L 178.407069 -112.545094 
L 176.81936 -113.057214 
L 175.231901 -110.143772 
L 173.644092 -108.436114 
L 172.056599 -107.002219 
L 170.468446 -107.436926 
L 168.879733 -107.303759 
L 167.291523 -113.207347 
L 165.703812 -107.366195 
L 164.116986 -101.174505 
L 162.534288 -107.386253 
L 160.946431 -106.184474 
L 159.356948 -110.717553 
L 157.773768 -105.402868 
L 156.185518 -109.171045 
L 154.596208 -102.101341 
L 153.006724 -112.644282 
L 151.419734 -108.799926 
L 149.833575 -113.784775 
L 148.244811 -110.429838 
L 146.655078 -102.697276 
L 145.065372 -107.838012 
L 143.477165 -114.045526 
L 141.889797 -108.799143 
L 140.300755 -109.17644 
L 138.711214 -106.102394 
L 137.123866 -105.029718 
L 135.533259 -105.777151 
L 133.945593 -109.842416 
L 132.357575 -106.951881 
L 130.768707 -110.286775 
L 129.180632 -105.31192 
L 127.592507 -103.07555 
L 126.003095 -97.225791 
L 124.421534 -111.72444 
L 122.83581 -106.597876 
L 121.249959 -108.854251 
L 119.666513 -109.704225 
L 118.0763 -103.801446 
L 116.487573 -104.54316 
L 114.900807 -106.331323 
L 113.315919 -106.675131 
L 111.72877 -110.056847 
L 110.142699 -100.056829 
L 108.557493 -99.918362 
L 106.969239 -104.780727 
L 105.383814 -101.361545 
L 103.79467 -100.514817 
L 102.207516 -107.653731 
L 100.620572 -102.065154 
L 100.613708 -102.143245 
L 100.387777 -105.344199 
L 100.16136 -103.942127 
L 99.935236 -106.529273 
L 99.708761 -107.118955 
L 99.489169 -105.694931 
L 99.263514 -108.266806 
L 99.037434 -106.382905 
L 98.811178 -104.703083 
L 98.585043 -104.677302 
L 98.359008 -107.046146 
L 98.133217 -107.209845 
L 97.90697 -106.682362 
L 97.687708 -109.735909 
L 97.461706 -109.534749 
L 97.235692 -108.829858 
L 97.010693 -110.912972 
L 96.784301 -114.197788 
L 96.558186 -113.263223 
L 96.332273 -116.773924 
L 96.106248 -118.632738 
L 95.880101 -117.659911 
L 95.660804 -121.697996 
L 95.435771 -125.021242 
L 95.209775 -124.884896 
L 94.983715 -127.149712 
L 94.757759 -128.089213 
L 94.531606 -128.445983 
L 94.30515 -131.020317 
L 94.079293 -132.751594 
L 93.860875 -133.238626 
L 93.634597 -135.16661 
L 93.408368 -138.760872 
L 93.182518 -142.20206 
L 92.956123 -143.72979 
L 92.729838 -146.426337 
L 92.503892 -148.838588 
L 92.278502 -151.600091 
L 92.057953 -154.683137 
L 91.83186 -157.95091 
L 91.60565 -160.265435 
L 91.379196 -163.414645 
L 91.153031 -165.315051 
L 90.927264 -168.409024 
L 90.701844 -171.615633 
L 90.477077 -174.03656 
L 90.252136 -176.983997 
L 90.032651 -179.656293 
L 89.806335 -182.747951 
L 89.580275 -186.05812 
L 89.354814 -188.949092 
L 89.129324 -192.308705 
L 88.903195 -195.745366 
L 88.677605 -199.479282 
L 88.452395 -203.572837 
L 88.232946 -208.082484 
L 88.005547 -213.331479 
L 87.78008 -218.562919 
L 87.554287 -223.601893 
L 87.328086 -228.968861 
z
"/>
    </defs>
    <g clip-path="url(#pb3dbaba321)">
     <use xlink:href="#m5ad5c52046" x="0" y="295.673094" style="fill: #cad8e7"/>
    </g>
   </g>
   <g id="FillBetweenPolyCollection_5">
    <defs>
     <path id="m0901147546" d="M 87.324986 -228.998251 
L 87.324986 -228.87622 
L 87.445667 -222.844804 
L 87.566057 -217.872766 
L 87.686761 -212.185742 
L 87.807183 -206.665624 
L 87.924206 -202.008013 
L 88.04386 -197.868273 
L 88.162776 -193.871892 
L 88.281616 -190.270351 
L 88.4007 -186.262451 
L 88.520651 -182.560317 
L 88.641261 -179.060296 
L 88.761643 -175.307576 
L 88.87867 -171.977764 
L 88.99881 -168.053166 
L 89.118905 -164.804118 
L 89.239191 -160.995785 
L 89.359681 -156.97319 
L 89.48 -152.780572 
L 89.599878 -149.390013 
L 89.720386 -144.656826 
L 89.840657 -143.488395 
L 89.95758 -141.856966 
L 90.077901 -138.555404 
L 90.198439 -135.493175 
L 90.319423 -130.599919 
L 90.439879 -127.763295 
L 90.560354 -122.203279 
L 90.680995 -120.263128 
L 90.801451 -117.967495 
L 90.918663 -112.463998 
L 91.038903 -108.947592 
L 91.159356 -108.080192 
L 91.279827 -97.099139 
L 91.400187 -89.02796 
L 91.520931 -85.869558 
L 91.64132 -83.87195 
L 91.761928 -78.980766 
L 91.879128 -82.972443 
L 91.999501 -79.384427 
L 92.119962 -77.920622 
L 92.240401 -78.821966 
L 92.360961 -77.299892 
L 92.481604 -85.71396 
L 92.60194 -88.960019 
L 92.722832 -90.095107 
L 92.843262 -78.848994 
L 92.960146 -80.408602 
L 93.080444 -84.507549 
L 93.201038 -78.4609 
L 93.321608 -81.687078 
L 93.442285 -74.330303 
L 93.563163 -83.120856 
L 93.683741 -81.015843 
L 93.804106 -78.227284 
L 93.921215 -83.940471 
L 94.041559 -83.287772 
L 94.161877 -82.03794 
L 94.282519 -79.840913 
L 94.403134 -81.3032 
L 94.406887 -82.616569 
L 95.251745 -76.571523 
L 96.098663 -78.228805 
L 96.946468 -80.912419 
L 97.792967 -73.601167 
L 98.637689 -83.481974 
L 99.482578 -80.90313 
L 100.329937 -82.987134 
L 101.179272 -82.075445 
L 102.026274 -80.053699 
L 102.872897 -75.85392 
L 103.717703 -78.328771 
L 104.563988 -78.001994 
L 105.409569 -72.444427 
L 106.256971 -79.61961 
L 107.10245 -82.279234 
L 107.948295 -78.31539 
L 108.795485 -76.208747 
L 109.642469 -75.611978 
L 110.486794 -78.403615 
L 111.330895 -82.821159 
L 112.175902 -82.237063 
L 113.022336 -82.705021 
L 113.868401 -79.351976 
L 114.715165 -83.697778 
L 115.562726 -76.39577 
L 116.409219 -82.521521 
L 117.255448 -82.522123 
L 118.102292 -82.072695 
L 118.948899 -84.402815 
L 119.794011 -87.757751 
L 120.630454 -80.402545 
L 121.475465 -81.298364 
L 122.321249 -82.925753 
L 123.166343 -83.104848 
L 124.010977 -78.81693 
L 124.858729 -77.994903 
L 125.704537 -85.400692 
L 126.550577 -82.792654 
L 127.396679 -79.840426 
L 128.239527 -80.34034 
L 129.086778 -79.489311 
L 129.933687 -74.262791 
L 130.780738 -84.707314 
L 131.623567 -80.266209 
L 132.468279 -74.466919 
L 133.315175 -76.882728 
L 134.16207 -69.816043 
L 135.008434 -82.857218 
L 135.852687 -79.048228 
L 136.697138 -83.222219 
L 137.54279 -86.138169 
L 138.388538 -90.102367 
L 139.235415 -80.957263 
L 140.083085 -76.125558 
L 140.929007 -85.000141 
L 141.775525 -84.624106 
L 142.624276 -90.138392 
L 143.470932 -78.130374 
L 144.317155 -77.021172 
L 145.163722 -84.22779 
L 146.011105 -81.169227 
L 146.857619 -81.743669 
L 147.704869 -70.533377 
L 148.549124 -74.587908 
L 149.394428 -81.756607 
L 150.241421 -82.492798 
L 151.089278 -78.924019 
L 151.936447 -73.605207 
L 152.777815 -79.160216 
L 153.623718 -79.266896 
L 154.47231 -74.993604 
L 155.319553 -83.902242 
L 156.166657 -80.203539 
L 157.012403 -74.497556 
L 157.859554 -78.215833 
L 158.704943 -80.72738 
L 159.551501 -85.798964 
L 160.39676 -75.256692 
L 161.242424 -77.162752 
L 162.086443 -80.137659 
L 162.933061 -80.755377 
L 163.780661 -82.60209 
L 164.627785 -82.406721 
L 165.474297 -76.330523 
L 166.323068 -77.409705 
L 167.169101 -78.408174 
L 168.015926 -74.957544 
L 168.862504 -82.577696 
L 169.708604 -86.13717 
L 170.554804 -72.719258 
L 171.402227 -79.133817 
L 172.250064 -84.64779 
L 173.098458 -78.495116 
L 173.943286 -80.319016 
L 174.790112 -79.070451 
L 175.636834 -77.811179 
L 176.4842 -72.315135 
L 177.331798 -80.774958 
L 178.178736 -80.004571 
L 179.024532 -76.664369 
L 179.872007 -81.832682 
L 180.718438 -81.954309 
L 181.567024 -77.46061 
L 182.413297 -82.499676 
L 183.259306 -81.570522 
L 184.105852 -82.412632 
L 184.953006 -75.297158 
L 185.798764 -81.586067 
L 186.642931 -73.854321 
L 187.488234 -82.745742 
L 188.334389 -81.299693 
L 189.182957 -82.142862 
L 190.029354 -82.47904 
L 190.874852 -78.101567 
L 191.721899 -79.133612 
L 192.567087 -84.188371 
L 193.412079 -87.321078 
L 194.256257 -87.347145 
L 195.100936 -77.506435 
L 195.943212 -80.152741 
L 196.791038 -83.357962 
L 197.639958 -74.320926 
L 198.480164 -80.629313 
L 199.312636 -78.992953 
L 200.145116 -70.546095 
L 200.98617 -77.970575 
L 201.830266 -84.629533 
L 202.670809 -82.554987 
L 203.511823 -82.461107 
L 204.354119 -77.018375 
L 205.195643 -75.95752 
L 206.04824 -80.540228 
L 206.897302 -82.661507 
L 207.739526 -75.437481 
L 208.581965 -74.320302 
L 209.424166 -82.228961 
L 210.267401 -79.804072 
L 211.109798 -70.402071 
L 211.951616 -71.776376 
L 212.792368 -85.153434 
L 213.6336 -80.104382 
L 214.476442 -84.781009 
L 215.320155 -82.022623 
L 216.162129 -79.549602 
L 217.004312 -78.774151 
L 217.847898 -77.03683 
L 218.689986 -82.553223 
L 219.531623 -74.225522 
L 220.373752 -82.994554 
L 221.216241 -81.518755 
L 222.059375 -78.633919 
L 222.90214 -76.77752 
L 223.744423 -84.043383 
L 224.585985 -71.627558 
L 225.428648 -79.106491 
L 226.26975 -72.624932 
L 227.112346 -81.979208 
L 227.955169 -81.014287 
L 228.798591 -79.625417 
L 228.798591 -99.420382 
L 228.798591 -99.420382 
L 227.955169 -99.388019 
L 227.112346 -106.755743 
L 226.26975 -103.745944 
L 225.428648 -108.158424 
L 224.585985 -101.333006 
L 223.744423 -102.045291 
L 222.90214 -107.536378 
L 222.059375 -107.422593 
L 221.216241 -112.165902 
L 220.373752 -109.517049 
L 219.531623 -104.146294 
L 218.689986 -109.892004 
L 217.847898 -106.225691 
L 217.004312 -102.805204 
L 216.162129 -107.870957 
L 215.320155 -107.345322 
L 214.476442 -105.605282 
L 213.6336 -104.325661 
L 212.792368 -115.380045 
L 211.951616 -115.071716 
L 211.109798 -102.759 
L 210.267401 -108.056888 
L 209.424166 -102.241381 
L 208.581965 -105.687036 
L 207.739526 -100.971341 
L 206.897302 -103.283341 
L 206.04824 -105.614964 
L 205.195643 -104.029356 
L 204.354119 -108.126865 
L 203.511823 -107.192113 
L 202.670809 -102.774048 
L 201.830266 -105.016218 
L 200.98617 -104.017331 
L 200.145116 -103.630322 
L 199.312636 -105.732061 
L 198.480164 -102.432828 
L 197.639958 -102.239723 
L 196.791038 -102.453776 
L 195.943212 -109.9948 
L 195.100936 -103.281957 
L 194.256257 -107.277213 
L 193.412079 -107.56045 
L 192.567087 -101.808699 
L 191.721899 -99.518037 
L 190.874852 -99.186032 
L 190.029354 -107.08399 
L 189.182957 -107.541049 
L 188.334389 -109.103708 
L 187.488234 -107.013572 
L 186.642931 -104.741441 
L 185.798764 -104.358681 
L 184.953006 -109.057054 
L 184.105852 -105.221151 
L 183.259306 -110.412684 
L 182.413297 -109.595182 
L 181.567024 -106.287099 
L 180.718438 -101.137291 
L 179.872007 -113.923843 
L 179.024532 -111.730066 
L 178.178736 -109.656546 
L 177.331798 -100.83218 
L 176.4842 -94.848089 
L 175.636834 -104.84678 
L 174.790112 -110.731573 
L 173.943286 -104.848911 
L 173.098458 -103.353005 
L 172.250064 -106.977102 
L 171.402227 -110.058133 
L 170.554804 -105.32817 
L 169.708604 -107.28948 
L 168.862504 -107.653343 
L 168.015926 -101.540126 
L 167.169101 -102.74936 
L 166.323068 -106.583526 
L 165.474297 -104.37163 
L 164.627785 -114.581837 
L 163.780661 -111.474045 
L 162.933061 -113.854515 
L 162.086443 -102.370653 
L 161.242424 -103.2128 
L 160.39676 -108.900476 
L 159.551501 -104.025796 
L 158.704943 -109.240098 
L 157.859554 -106.53567 
L 157.012403 -103.81906 
L 156.166657 -108.125805 
L 155.319553 -109.351368 
L 154.47231 -104.365997 
L 153.623718 -101.47291 
L 152.777815 -100.047998 
L 151.936447 -104.871979 
L 151.089278 -101.082867 
L 150.241421 -106.685482 
L 149.394428 -107.83902 
L 148.549124 -104.869522 
L 147.704869 -99.882336 
L 146.857619 -102.554154 
L 146.011105 -106.130508 
L 145.163722 -107.611257 
L 144.317155 -108.244941 
L 143.470932 -109.363378 
L 142.624276 -108.58447 
L 141.775525 -106.268281 
L 140.929007 -105.99059 
L 140.083085 -105.410996 
L 139.235415 -103.46598 
L 138.388538 -111.315163 
L 137.54279 -109.987666 
L 136.697138 -116.016501 
L 135.852687 -101.317306 
L 135.008434 -110.541724 
L 134.16207 -102.026956 
L 133.315175 -96.807532 
L 132.468279 -104.991261 
L 131.623567 -105.03863 
L 130.780738 -104.91532 
L 129.933687 -109.777735 
L 129.086778 -107.486663 
L 128.239527 -103.437242 
L 127.396679 -102.774479 
L 126.550577 -106.291818 
L 125.704537 -104.388361 
L 124.858729 -101.332627 
L 124.010977 -108.732876 
L 123.166343 -108.001573 
L 122.321249 -106.104887 
L 121.475465 -106.680902 
L 120.630454 -108.008097 
L 119.794011 -111.652811 
L 118.948899 -113.328175 
L 118.102292 -107.319486 
L 117.255448 -102.858595 
L 116.409219 -102.861408 
L 115.562726 -106.179457 
L 114.715165 -105.556506 
L 113.868401 -104.877187 
L 113.022336 -109.938608 
L 112.175902 -106.712247 
L 111.330895 -109.522659 
L 110.486794 -99.931635 
L 109.642469 -101.479913 
L 108.795485 -106.775334 
L 107.948295 -109.83834 
L 107.10245 -115.280677 
L 106.256971 -106.777068 
L 105.409569 -102.164624 
L 104.563988 -99.40944 
L 103.717703 -103.068501 
L 102.872897 -105.439798 
L 102.026274 -107.358709 
L 101.179272 -107.728457 
L 100.329937 -105.351154 
L 99.482578 -102.717611 
L 98.637689 -101.78517 
L 97.792967 -97.49124 
L 96.946468 -101.716749 
L 96.098663 -105.607768 
L 95.251745 -106.660689 
L 94.406887 -108.066015 
L 94.403134 -108.543253 
L 94.282519 -109.368394 
L 94.161877 -105.047116 
L 94.041559 -101.12751 
L 93.921215 -104.116498 
L 93.804106 -107.203206 
L 93.683741 -106.694958 
L 93.563163 -107.647213 
L 93.442285 -108.453107 
L 93.321608 -106.35974 
L 93.201038 -110.998898 
L 93.080444 -111.771157 
L 92.960146 -110.345467 
L 92.843262 -108.108951 
L 92.722832 -115.154606 
L 92.60194 -112.72243 
L 92.481604 -113.128537 
L 92.360961 -114.722919 
L 92.240401 -112.746948 
L 92.119962 -111.282627 
L 91.999501 -113.08282 
L 91.879128 -116.649202 
L 91.761928 -120.74485 
L 91.64132 -120.473657 
L 91.520931 -120.109026 
L 91.400187 -122.834208 
L 91.279827 -123.620098 
L 91.159356 -126.936915 
L 91.038903 -127.840168 
L 90.918663 -129.62789 
L 90.801451 -130.654166 
L 90.680995 -131.491367 
L 90.560354 -136.108518 
L 90.439879 -137.379934 
L 90.319423 -139.63993 
L 90.198439 -143.215967 
L 90.077901 -146.620707 
L 89.95758 -149.204297 
L 89.840657 -153.648043 
L 89.720386 -156.397468 
L 89.599878 -159.388985 
L 89.48 -162.155088 
L 89.359681 -164.624893 
L 89.239191 -166.644236 
L 89.118905 -169.838228 
L 88.99881 -173.132226 
L 88.87867 -176.363392 
L 88.761643 -179.548541 
L 88.641261 -182.488998 
L 88.520651 -186.170659 
L 88.4007 -189.227498 
L 88.281616 -191.943363 
L 88.162776 -195.652196 
L 88.04386 -199.315175 
L 87.924206 -203.573645 
L 87.807183 -208.265744 
L 87.686761 -213.792894 
L 87.566057 -218.707904 
L 87.445667 -223.691707 
L 87.324986 -228.998251 
z
"/>
    </defs>
    <g clip-path="url(#pb3dbaba321)">
     <use xlink:href="#m0901147546" x="0" y="295.673094" style="fill: #d3e1f0"/>
    </g>
   </g>
   <g id="matplotlib.axis_1">
    <g id="xtick_1">
     <g id="line2d_1">
      <defs>
       <path id="m1634deec87" d="M 0 0 
L 0 5 
" style="stroke: #000000; stroke-width: 1.5"/>
      </defs>
      <g>
       <use xlink:href="#m1634deec87" x="87.321242" y="253.852" style="stroke: #000000; stroke-width: 1.5"/>
      </g>
     </g>
     <g id="text_1">
      <text style="font-size: 11px; font-family: 'Arial', 'Helvetica', 'DejaVu Sans', sans-serif; text-anchor: middle" x="87.321242" y="270.709422" transform="rotate(-0 87.321242 270.709422)">0</text>
     </g>
    </g>
    <g id="xtick_2">
     <g id="line2d_2">
      <g>
       <use xlink:href="#m1634deec87" x="148.513886" y="253.852" style="stroke: #000000; stroke-width: 1.5"/>
      </g>
     </g>
     <g id="text_2">
      <text style="font-size: 11px; font-family: 'Arial', 'Helvetica', 'DejaVu Sans', sans-serif; text-anchor: middle" x="148.513886" y="270.709422" transform="rotate(-0 148.513886 270.709422)">50</text>
     </g>
    </g>
    <g id="xtick_3">
     <g id="line2d_3">
      <g>
       <use xlink:href="#m1634deec87" x="209.70653" y="253.852" style="stroke: #000000; stroke-width: 1.5"/>
      </g>
     </g>
     <g id="text_3">
      <text style="font-size: 11px; font-family: 'Arial', 'Helvetica', 'DejaVu Sans', sans-serif; text-anchor: middle" x="209.70653" y="270.709422" transform="rotate(-0 209.70653 270.709422)">100</text>
     </g>
    </g>
    <g id="xtick_4">
     <g id="line2d_4">
      <g>
       <use xlink:href="#m1634deec87" x="270.899173" y="253.852" style="stroke: #000000; stroke-width: 1.5"/>
      </g>
     </g>
     <g id="text_4">
      <text style="font-size: 11px; font-family: 'Arial', 'Helvetica', 'DejaVu Sans', sans-serif; text-anchor: middle" x="270.899173" y="270.709422" transform="rotate(-0 270.899173 270.709422)">150</text>
     </g>
    </g>
    <g id="xtick_5">
     <g id="line2d_5">
      <g>
       <use xlink:href="#m1634deec87" x="332.091817" y="253.852" style="stroke: #000000; stroke-width: 1.5"/>
      </g>
     </g>
     <g id="text_5">
      <text style="font-size: 11px; font-family: 'Arial', 'Helvetica', 'DejaVu Sans', sans-serif; text-anchor: middle" x="332.091817" y="270.709422" transform="rotate(-0 332.091817 270.709422)">200</text>
     </g>
    </g>
    <g id="text_6">
     <text style="font-size: 14px; font-family: 'Arial', 'Helvetica', 'DejaVu Sans', sans-serif; text-anchor: middle" x="220.248359" y="287.989812" transform="rotate(-0 220.248359 287.989812)">Wall-clock time (s)</text>
    </g>
   </g>
   <g id="matplotlib.axis_2">
    <g id="ytick_1">
     <g id="line2d_6">
      <defs>
       <path id="m44d552ad98" d="M 0 0 
L -5 0 
" style="stroke: #000000; stroke-width: 1.5"/>
      </defs>
      <g>
       <use xlink:href="#m44d552ad98" x="74.03" y="167.567321" style="stroke: #000000; stroke-width: 1.5"/>
      </g>
     </g>
     <g id="text_7">
      <!-- $\mathdefault{10^{-1}}$ -->
      <g transform="translate(39.68 172.682321)">
       <text>
        <tspan x="0" y="-0.846063" style="font-size: 11px; font-family: 'DejaVu Sans'">1</tspan>
        <tspan x="6.998535" y="-0.846063" style="font-size: 11px; font-family: 'DejaVu Sans'">0</tspan>
        <tspan x="14.102344" y="-5.389063" style="font-size: 7.7px; font-family: 'DejaVu Sans'">−</tspan>
        <tspan x="20.554102" y="-5.389063" style="font-size: 7.7px; font-family: 'DejaVu Sans'">1</tspan>
       </text>
      </g>
     </g>
    </g>
    <g id="ytick_2">
     <g id="line2d_7">
      <defs>
       <path id="m943650e937" d="M 0 0 
L -2 0 
" style="stroke: #000000; stroke-width: 0.6"/>
      </defs>
      <g>
       <use xlink:href="#m943650e937" x="74.03" y="246.785026" style="stroke: #000000; stroke-width: 0.6"/>
      </g>
     </g>
     <g id="text_8">
      <!-- $\mathdefault{2\times10^{-2}}$ -->
      <g transform="translate(22.32 251.955026)">
       <text>
        <tspan x="0" y="-0.736688" style="font-size: 11px; font-family: 'DejaVu Sans'">2</tspan>
        <tspan x="9.141602" y="-0.736688" style="font-size: 11px; font-family: 'DejaVu Sans'">×</tspan>
        <tspan x="20.501465" y="-0.736688" style="font-size: 11px; font-family: 'DejaVu Sans'">1</tspan>
        <tspan x="27.5" y="-0.736688" style="font-size: 11px; font-family: 'DejaVu Sans'">0</tspan>
        <tspan x="34.603809" y="-5.279688" style="font-size: 7.7px; font-family: 'DejaVu Sans'">−</tspan>
        <tspan x="41.055566" y="-5.279688" style="font-size: 7.7px; font-family: 'DejaVu Sans'">2</tspan>
       </text>
      </g>
     </g>
    </g>
    <g id="ytick_3">
     <g id="line2d_8">
      <g>
       <use xlink:href="#m943650e937" x="74.03" y="226.827738" style="stroke: #000000; stroke-width: 0.6"/>
      </g>
     </g>
     <g id="text_9">
      <!-- $\mathdefault{3\times10^{-2}}$ -->
      <g transform="translate(22.32 231.997738)">
       <text>
        <tspan x="0" y="-0.736688" style="font-size: 11px; font-family: 'DejaVu Sans'">3</tspan>
        <tspan x="9.141602" y="-0.736688" style="font-size: 11px; font-family: 'DejaVu Sans'">×</tspan>
        <tspan x="20.501465" y="-0.736688" style="font-size: 11px; font-family: 'DejaVu Sans'">1</tspan>
        <tspan x="27.5" y="-0.736688" style="font-size: 11px; font-family: 'DejaVu Sans'">0</tspan>
        <tspan x="34.603809" y="-5.279688" style="font-size: 7.7px; font-family: 'DejaVu Sans'">−</tspan>
        <tspan x="41.055566" y="-5.279688" style="font-size: 7.7px; font-family: 'DejaVu Sans'">2</tspan>
       </text>
      </g>
     </g>
    </g>
    <g id="ytick_4">
     <g id="line2d_9">
      <g>
       <use xlink:href="#m943650e937" x="74.03" y="212.667817" style="stroke: #000000; stroke-width: 0.6"/>
      </g>
     </g>
     <g id="text_10">
      <!-- $\mathdefault{4\times10^{-2}}$ -->
      <g transform="translate(22.32 217.837817)">
       <text>
        <tspan x="0" y="-0.736688" style="font-size: 11px; font-family: 'DejaVu Sans'">4</tspan>
        <tspan x="9.141602" y="-0.736688" style="font-size: 11px; font-family: 'DejaVu Sans'">×</tspan>
        <tspan x="20.501465" y="-0.736688" style="font-size: 11px; font-family: 'DejaVu Sans'">1</tspan>
        <tspan x="27.5" y="-0.736688" style="font-size: 11px; font-family: 'DejaVu Sans'">0</tspan>
        <tspan x="34.603809" y="-5.279688" style="font-size: 7.7px; font-family: 'DejaVu Sans'">−</tspan>
        <tspan x="41.055566" y="-5.279688" style="font-size: 7.7px; font-family: 'DejaVu Sans'">2</tspan>
       </text>
      </g>
     </g>
    </g>
    <g id="ytick_5">
     <g id="line2d_10">
      <g>
       <use xlink:href="#m943650e937" x="74.03" y="201.684529" style="stroke: #000000; stroke-width: 0.6"/>
      </g>
     </g>
    </g>
    <g id="ytick_6">
     <g id="line2d_11">
      <g>
       <use xlink:href="#m943650e937" x="74.03" y="192.71053" style="stroke: #000000; stroke-width: 0.6"/>
      </g>
     </g>
     <g id="text_11">
      <!-- $\mathdefault{6\times10^{-2}}$ -->
      <g transform="translate(22.32 197.88053)">
       <text>
        <tspan x="0" y="-0.736688" style="font-size: 11px; font-family: 'DejaVu Sans'">6</tspan>
        <tspan x="9.141602" y="-0.736688" style="font-size: 11px; font-family: 'DejaVu Sans'">×</tspan>
        <tspan x="20.501465" y="-0.736688" style="font-size: 11px; font-family: 'DejaVu Sans'">1</tspan>
        <tspan x="27.5" y="-0.736688" style="font-size: 11px; font-family: 'DejaVu Sans'">0</tspan>
        <tspan x="34.603809" y="-5.279688" style="font-size: 7.7px; font-family: 'DejaVu Sans'">−</tspan>
        <tspan x="41.055566" y="-5.279688" style="font-size: 7.7px; font-family: 'DejaVu Sans'">2</tspan>
       </text>
      </g>
     </g>
    </g>
    <g id="ytick_7">
     <g id="line2d_12">
      <g>
       <use xlink:href="#m943650e937" x="74.03" y="185.123121" style="stroke: #000000; stroke-width: 0.6"/>
      </g>
     </g>
    </g>
    <g id="ytick_8">
     <g id="line2d_13">
      <g>
       <use xlink:href="#m943650e937" x="74.03" y="178.550609" style="stroke: #000000; stroke-width: 0.6"/>
      </g>
     </g>
    </g>
    <g id="ytick_9">
     <g id="line2d_14">
      <g>
       <use xlink:href="#m943650e937" x="74.03" y="172.753242" style="stroke: #000000; stroke-width: 0.6"/>
      </g>
     </g>
    </g>
    <g id="ytick_10">
     <g id="line2d_15">
      <g>
       <use xlink:href="#m943650e937" x="74.03" y="133.450112" style="stroke: #000000; stroke-width: 0.6"/>
      </g>
     </g>
     <g id="text_12">
      <!-- $\mathdefault{2\times10^{-1}}$ -->
      <g transform="translate(22.32 138.565112)">
       <text>
        <tspan x="0" y="-0.846063" style="font-size: 11px; font-family: 'DejaVu Sans'">2</tspan>
        <tspan x="9.141602" y="-0.846063" style="font-size: 11px; font-family: 'DejaVu Sans'">×</tspan>
        <tspan x="20.501465" y="-0.846063" style="font-size: 11px; font-family: 'DejaVu Sans'">1</tspan>
        <tspan x="27.5" y="-0.846063" style="font-size: 11px; font-family: 'DejaVu Sans'">0</tspan>
        <tspan x="34.603809" y="-5.389063" style="font-size: 7.7px; font-family: 'DejaVu Sans'">−</tspan>
        <tspan x="41.055566" y="-5.389063" style="font-size: 7.7px; font-family: 'DejaVu Sans'">1</tspan>
       </text>
      </g>
     </g>
    </g>
    <g id="ytick_11">
     <g id="line2d_16">
      <g>
       <use xlink:href="#m943650e937" x="74.03" y="113.492825" style="stroke: #000000; stroke-width: 0.6"/>
      </g>
     </g>
     <g id="text_13">
      <!-- $\mathdefault{3\times10^{-1}}$ -->
      <g transform="translate(22.32 118.607825)">
       <text>
        <tspan x="0" y="-0.846063" style="font-size: 11px; font-family: 'DejaVu Sans'">3</tspan>
        <tspan x="9.141602" y="-0.846063" style="font-size: 11px; font-family: 'DejaVu Sans'">×</tspan>
        <tspan x="20.501465" y="-0.846063" style="font-size: 11px; font-family: 'DejaVu Sans'">1</tspan>
        <tspan x="27.5" y="-0.846063" style="font-size: 11px; font-family: 'DejaVu Sans'">0</tspan>
        <tspan x="34.603809" y="-5.389063" style="font-size: 7.7px; font-family: 'DejaVu Sans'">−</tspan>
        <tspan x="41.055566" y="-5.389063" style="font-size: 7.7px; font-family: 'DejaVu Sans'">1</tspan>
       </text>
      </g>
     </g>
    </g>
    <g id="ytick_12">
     <g id="line2d_17">
      <g>
       <use xlink:href="#m943650e937" x="74.03" y="99.332904" style="stroke: #000000; stroke-width: 0.6"/>
      </g>
     </g>
     <g id="text_14">
      <!-- $\mathdefault{4\times10^{-1}}$ -->
      <g transform="translate(22.32 104.447904)">
       <text>
        <tspan x="0" y="-0.846063" style="font-size: 11px; font-family: 'DejaVu Sans'">4</tspan>
        <tspan x="9.141602" y="-0.846063" style="font-size: 11px; font-family: 'DejaVu Sans'">×</tspan>
        <tspan x="20.501465" y="-0.846063" style="font-size: 11px; font-family: 'DejaVu Sans'">1</tspan>
        <tspan x="27.5" y="-0.846063" style="font-size: 11px; font-family: 'DejaVu Sans'">0</tspan>
        <tspan x="34.603809" y="-5.389063" style="font-size: 7.7px; font-family: 'DejaVu Sans'">−</tspan>
        <tspan x="41.055566" y="-5.389063" style="font-size: 7.7px; font-family: 'DejaVu Sans'">1</tspan>
       </text>
      </g>
     </g>
    </g>
    <g id="ytick_13">
     <g id="line2d_18">
      <g>
       <use xlink:href="#m943650e937" x="74.03" y="88.349616" style="stroke: #000000; stroke-width: 0.6"/>
      </g>
     </g>
    </g>
    <g id="ytick_14">
     <g id="line2d_19">
      <g>
       <use xlink:href="#m943650e937" x="74.03" y="79.375616" style="stroke: #000000; stroke-width: 0.6"/>
      </g>
     </g>
     <g id="text_15">
      <!-- $\mathdefault{6\times10^{-1}}$ -->
      <g transform="translate(22.32 84.490616)">
       <text>
        <tspan x="0" y="-0.846063" style="font-size: 11px; font-family: 'DejaVu Sans'">6</tspan>
        <tspan x="9.141602" y="-0.846063" style="font-size: 11px; font-family: 'DejaVu Sans'">×</tspan>
        <tspan x="20.501465" y="-0.846063" style="font-size: 11px; font-family: 'DejaVu Sans'">1</tspan>
        <tspan x="27.5" y="-0.846063" style="font-size: 11px; font-family: 'DejaVu Sans'">0</tspan>
        <tspan x="34.603809" y="-5.389063" style="font-size: 7.7px; font-family: 'DejaVu Sans'">−</tspan>
        <tspan x="41.055566" y="-5.389063" style="font-size: 7.7px; font-family: 'DejaVu Sans'">1</tspan>
       </text>
      </g>
     </g>
    </g>
    <g id="ytick_15">
     <g id="line2d_20">
      <g>
       <use xlink:href="#m943650e937" x="74.03" y="71.788208" style="stroke: #000000; stroke-width: 0.6"/>
      </g>
     </g>
    </g>
    <g id="ytick_16">
     <g id="line2d_21">
      <g>
       <use xlink:href="#m943650e937" x="74.03" y="65.215695" style="stroke: #000000; stroke-width: 0.6"/>
      </g>
     </g>
    </g>
    <g id="ytick_17">
     <g id="line2d_22">
      <g>
       <use xlink:href="#m943650e937" x="74.03" y="59.418329" style="stroke: #000000; stroke-width: 0.6"/>
      </g>
     </g>
    </g>
    <g id="text_16">
     <!-- $\mathrm{SW}_2$ -->
     <g transform="translate(14.956719 170.484) rotate(-90)">
      <text>
       <tspan x="0" y="-0.609375" style="font-size: 14px; font-family: 'DejaVu Sans'">S</tspan>
       <tspan x="8.886719" y="-0.609375" style="font-size: 14px; font-family: 'DejaVu Sans'">W</tspan>
       <tspan x="22.863477" y="1.490618" style="font-size: 9.8px; font-family: 'DejaVu Sans'">2</tspan>
      </text>
     </g>
    </g>
   </g>
   <g id="line2d_23">
    <path d="M 74.03 201.933775 
L 366.466719 201.933775 
" clip-path="url(#pb3dbaba321)" style="fill: none; stroke-dasharray: 2.6,2.6; stroke-dashoffset: 0; stroke: #4d4d4d; stroke-width: 1.3"/>
   </g>
   <g id="patch_3">
    <path d="M 74.03 253.852 
L 74.03 57.576 
" style="fill: none; stroke: #000000; stroke-width: 2; stroke-linejoin: miter; stroke-linecap: square"/>
   </g>
   <g id="patch_4">
    <path d="M 74.03 253.852 
L 366.466719 253.852 
" style="fill: none; stroke: #000000; stroke-width: 2; stroke-linejoin: miter; stroke-linecap: square"/>
   </g>
   <g id="line2d_24">
    <path d="M 87.322578 66.652613 
L 87.481185 69.490511 
L 88.946088 81.275823 
L 90.216716 88.193738 
L 91.049807 90.580121 
L 91.882 92.520667 
L 92.714255 93.768264 
L 93.546145 94.793948 
L 94.65495 95.905861 
L 95.210563 96.174357 
L 96.043069 96.543859 
L 96.598644 96.657513 
L 97.153277 97.009216 
L 97.708971 97.313518 
L 100.212271 97.689786 
L 100.766167 97.77421 
L 101.043913 97.73887 
L 101.320721 97.872096 
L 103.263654 97.878465 
L 103.540932 98.022363 
L 104.372291 97.989366 
L 104.927358 97.953083 
L 105.750881 97.924786 
L 106.024746 98.091161 
L 106.857624 97.978108 
L 109.633465 98.089261 
L 110.189592 98.146645 
L 110.468504 98.068716 
L 111.577389 98.272619 
L 111.855055 98.093341 
L 116.300709 98.097508 
L 116.855819 98.002005 
L 118.526155 98.17595 
L 118.804068 98.089859 
L 119.360727 98.184877 
L 119.65298 98.074595 
L 119.933853 98.191795 
L 121.322437 98.053991 
L 122.43519 98.215711 
L 124.377092 98.211946 
L 124.932597 98.270452 
L 125.490182 98.195178 
L 128.553729 98.200437 
L 129.110864 98.270927 
L 130.22589 98.18499 
L 131.337957 98.124494 
L 131.615375 98.223082 
L 132.173104 98.064424 
L 132.45091 98.186856 
L 133.284835 98.164075 
L 133.564089 98.338949 
L 133.843572 98.288328 
L 133.843572 98.288328 
" clip-path="url(#pb3dbaba321)" style="fill: none; stroke: #767676; stroke-width: 2.3; stroke-linecap: square"/>
    <defs>
     <path id="m299836e717" d="M 0 3 
C 0.795609 3 1.55874 2.683901 2.12132 2.12132 
C 2.683901 1.55874 3 0.795609 3 0 
C 3 -0.795609 2.683901 -1.55874 2.12132 -2.12132 
C 1.55874 -2.683901 0.795609 -3 0 -3 
C -0.795609 -3 -1.55874 -2.683901 -2.12132 -2.12132 
C -2.683901 -1.55874 -3 -0.795609 -3 0 
C -3 0.795609 -2.683901 1.55874 -2.12132 2.12132 
C -1.55874 2.683901 -0.795609 3 0 3 
z
" style="stroke: #767676"/>
    </defs>
    <g clip-path="url(#pb3dbaba321)">
     <use xlink:href="#m299836e717" x="87.322578" y="66.652613" style="fill: #ffffff; stroke: #767676"/>
     <use xlink:href="#m299836e717" x="88.391911" y="77.052318" style="fill: #ffffff; stroke: #767676"/>
     <use xlink:href="#m299836e717" x="89.462387" y="84.654801" style="fill: #ffffff; stroke: #767676"/>
     <use xlink:href="#m299836e717" x="95.488253" y="96.31861" style="fill: #ffffff; stroke: #767676"/>
     <use xlink:href="#m299836e717" x="102.987541" y="97.932167" style="fill: #ffffff; stroke: #767676"/>
     <use xlink:href="#m299836e717" x="110.468504" y="98.068716" style="fill: #ffffff; stroke: #767676"/>
     <use xlink:href="#m299836e717" x="117.970094" y="98.061021" style="fill: #ffffff; stroke: #767676"/>
     <use xlink:href="#m299836e717" x="125.490182" y="98.195178" style="fill: #ffffff; stroke: #767676"/>
     <use xlink:href="#m299836e717" x="133.007687" y="98.154639" style="fill: #ffffff; stroke: #767676"/>
    </g>
   </g>
   <g id="line2d_25">
    <path d="M 87.322615 66.547377 
L 87.858342 69.302698 
L 87.982582 69.538177 
L 88.47777 70.81886 
L 90.916993 76.369475 
L 92.65275 80.314409 
L 93.52087 81.957914 
L 94.678275 84.200371 
L 95.834039 86.012033 
L 98.142154 88.619929 
L 98.720888 89.104878 
L 101.306013 91.112088 
L 101.58994 91.221335 
L 102.162256 91.666988 
L 103.019041 92.059241 
L 103.303032 92.426339 
L 103.588377 92.398972 
L 104.158886 92.687889 
L 104.444893 92.931141 
L 105.588446 93.416485 
L 106.72555 94.021182 
L 107.581298 94.316566 
L 107.866778 94.291303 
L 108.438321 94.646093 
L 108.724717 94.633955 
L 109.013203 94.902106 
L 109.583244 94.946731 
L 109.870224 95.05646 
L 110.153914 94.990356 
L 111.00753 95.259206 
L 112.150283 95.503815 
L 115.292812 96.060029 
L 115.57921 96.162633 
L 116.147584 96.196315 
L 117.002014 96.354049 
L 121.00015 96.777055 
L 122.147356 96.726384 
L 122.721528 96.862446 
L 124.151492 97.065165 
L 124.438266 97.020528 
L 124.724332 97.198569 
L 125.01074 97.060645 
L 126.14973 97.229999 
L 126.432431 97.113525 
L 127.004119 97.336828 
L 127.575387 97.370031 
L 127.857902 97.476278 
L 128.139972 97.345145 
L 129.283483 97.431417 
L 129.567636 97.390298 
L 129.852688 97.515117 
L 130.70927 97.438113 
L 130.993389 97.53191 
L 131.563984 97.443948 
L 131.85161 97.569899 
L 132.421869 97.483959 
L 134.989935 97.571067 
L 135.279105 97.512957 
L 135.279105 97.512957 
" clip-path="url(#pb3dbaba321)" style="fill: none; stroke-dasharray: 8.51,3.68; stroke-dashoffset: 0; stroke: #42949e; stroke-width: 2.3"/>
    <defs>
     <path id="m1e0bfad962" d="M -3 3 
L 3 3 
L 3 -3 
L -3 -3 
z
" style="stroke: #42949e; stroke-linejoin: miter"/>
    </defs>
    <g clip-path="url(#pb3dbaba321)">
     <use xlink:href="#m1e0bfad962" x="87.322615" y="66.547377" style="fill: #ffffff; stroke: #42949e; stroke-linejoin: miter"/>
     <use xlink:href="#m1e0bfad962" x="88.436665" y="70.738609" style="fill: #ffffff; stroke: #42949e; stroke-linejoin: miter"/>
     <use xlink:href="#m1e0bfad962" x="89.550875" y="73.286753" style="fill: #ffffff; stroke: #42949e; stroke-linejoin: miter"/>
     <use xlink:href="#m1e0bfad962" x="95.834039" y="86.012033" style="fill: #ffffff; stroke: #42949e; stroke-linejoin: miter"/>
     <use xlink:href="#m1e0bfad962" x="103.588377" y="92.398972" style="fill: #ffffff; stroke: #42949e; stroke-linejoin: miter"/>
     <use xlink:href="#m1e0bfad962" x="111.294756" y="95.345312" style="fill: #ffffff; stroke: #42949e; stroke-linejoin: miter"/>
     <use xlink:href="#m1e0bfad962" x="118.998261" y="96.69141" style="fill: #ffffff; stroke: #42949e; stroke-linejoin: miter"/>
     <use xlink:href="#m1e0bfad962" x="126.718553" y="97.290111" style="fill: #ffffff; stroke: #42949e; stroke-linejoin: miter"/>
     <use xlink:href="#m1e0bfad962" x="134.421521" y="97.524011" style="fill: #ffffff; stroke: #42949e; stroke-linejoin: miter"/>
    </g>
   </g>
   <g id="line2d_26">
    <path d="M 87.323428 66.641347 
L 87.813638 79.360098 
L 88.234016 90.260748 
L 89.563579 104.198558 
L 89.774554 105.603562 
L 90.052958 108.227522 
L 90.123423 108.101653 
L 90.404963 110.689283 
L 90.474775 110.863172 
L 90.894418 114.083516 
L 91.173216 115.121026 
L 91.454189 117.589027 
L 91.456405 117.579688 
L 92.439667 123.877782 
L 92.9303 127.044733 
L 93.42022 129.22505 
L 93.910517 133.182092 
L 94.894689 139.024257 
L 95.877063 143.861623 
L 96.371055 147.276853 
L 96.860903 149.066553 
L 98.335763 157.167318 
L 99.317921 164.236149 
L 99.805449 166.356911 
L 100.294605 165.179099 
L 100.783778 167.281885 
L 101.273763 169.952945 
L 101.762907 170.07408 
L 102.250991 174.013249 
L 102.740766 174.580904 
L 103.231942 174.195936 
L 103.722908 184.444367 
L 104.216365 177.176898 
L 104.712718 178.077003 
L 105.207326 182.305678 
L 105.704669 189.570814 
L 106.203016 187.708516 
L 106.701039 186.531588 
L 107.197964 192.437971 
L 107.694431 191.354957 
L 108.184106 188.482884 
L 108.672335 196.759223 
L 109.162053 186.966771 
L 110.142621 192.138431 
L 110.637541 189.013987 
L 111.148376 191.341568 
L 111.645667 198.722894 
L 112.144035 188.699756 
L 112.642171 199.769525 
L 113.140073 195.664642 
L 113.638756 198.10065 
L 114.137091 197.822505 
L 114.634514 198.756273 
L 115.132726 198.32362 
L 115.631316 200.976801 
L 116.129059 192.008537 
L 116.626882 194.162353 
L 117.124924 193.603804 
L 117.621975 195.105443 
L 118.119576 197.806904 
L 118.618094 197.753839 
L 119.114191 190.601765 
L 120.108349 194.252396 
L 120.606195 192.937712 
L 121.104535 197.66859 
L 121.601716 197.461359 
L 122.100039 191.521356 
L 122.596909 197.116542 
L 123.09475 199.36152 
L 123.590492 202.66626 
L 124.089125 194.479196 
L 124.587692 197.783632 
L 125.086558 202.029224 
L 125.584619 193.347864 
L 126.083133 196.942692 
L 126.580791 202.824735 
L 127.079854 199.972333 
L 127.578366 204.254671 
L 128.076408 201.315882 
L 128.574314 200.467803 
L 129.073052 195.370015 
L 129.57111 191.828318 
L 130.069125 190.938509 
L 131.063216 197.790302 
L 131.559816 194.391289 
L 132.057312 193.835456 
L 132.555912 203.404841 
L 133.05385 193.403019 
L 133.551924 199.745868 
L 134.05041 195.100017 
L 134.548587 202.407366 
L 135.545711 198.186179 
L 136.541115 203.478695 
L 137.036687 203.266909 
L 137.534982 205.662669 
L 138.03233 201.296595 
L 138.528588 200.670939 
L 139.026473 202.664433 
L 139.524708 197.474543 
L 140.022373 199.80736 
L 140.521892 208.027733 
L 141.020336 201.68149 
L 141.519188 200.041724 
L 142.018305 191.470741 
L 142.515954 195.60179 
L 143.511023 207.397858 
L 144.00932 200.177029 
L 144.507876 206.198041 
L 145.006366 197.823485 
L 145.504352 197.79169 
L 146.003385 202.845452 
L 146.501504 198.712994 
L 147.000221 206.444336 
L 147.498417 200.864744 
L 147.99662 206.207164 
L 148.49529 198.963153 
L 148.993789 204.285374 
L 149.491619 196.531262 
L 149.990505 196.882112 
L 150.489227 192.707353 
L 150.98598 190.382287 
L 151.983215 195.844722 
L 152.483211 203.22502 
L 152.982064 203.618956 
L 153.47992 196.859387 
L 153.976275 200.014053 
L 154.473714 204.281092 
L 154.970625 206.559957 
L 155.468902 207.583746 
L 155.967493 191.918314 
L 156.465565 192.382505 
L 156.965096 192.555138 
L 157.463492 197.890986 
L 157.962735 192.434747 
L 158.460541 195.302006 
L 158.959826 190.041906 
L 159.458248 193.712655 
L 159.956387 198.5869 
L 160.454084 196.324084 
L 160.951726 191.67485 
L 161.947312 197.556225 
L 162.446103 200.265111 
L 162.944198 198.06492 
L 163.442661 196.410979 
L 163.941547 206.976033 
L 164.44109 199.350029 
L 164.939704 197.250188 
L 165.436429 194.336742 
L 165.933766 197.843088 
L 166.430818 199.700587 
L 166.92837 203.3495 
L 167.426234 200.188705 
L 167.924872 203.04433 
L 168.422732 197.020978 
L 169.419025 201.547704 
L 169.91773 200.047857 
L 170.416002 196.512112 
L 170.416002 196.512112 
" clip-path="url(#pb3dbaba321)" style="fill: none; stroke-dasharray: 14.72,3.68,2.3,3.68; stroke-dashoffset: 0; stroke: #9a4d8e; stroke-width: 2.3"/>
    <defs>
     <path id="m885e687603" d="M -0 4.242641 
L 4.242641 0 
L 0 -4.242641 
L -4.242641 -0 
z
" style="stroke: #9a4d8e; stroke-linejoin: miter"/>
    </defs>
    <g clip-path="url(#pb3dbaba321)">
     <use xlink:href="#m885e687603" x="87.323428" y="66.641347" style="fill: #ffffff; stroke: #9a4d8e; stroke-linejoin: miter"/>
     <use xlink:href="#m885e687603" x="89.214206" y="100.861627" style="fill: #ffffff; stroke: #9a4d8e; stroke-linejoin: miter"/>
     <use xlink:href="#m885e687603" x="91.10513" y="114.753307" style="fill: #ffffff; stroke: #9a4d8e; stroke-linejoin: miter"/>
     <use xlink:href="#m885e687603" x="101.762907" y="170.07408" style="fill: #ffffff; stroke: #9a4d8e; stroke-linejoin: miter"/>
     <use xlink:href="#m885e687603" x="115.132726" y="198.32362" style="fill: #ffffff; stroke: #9a4d8e; stroke-linejoin: miter"/>
     <use xlink:href="#m885e687603" x="128.574314" y="200.467803" style="fill: #ffffff; stroke: #9a4d8e; stroke-linejoin: miter"/>
     <use xlink:href="#m885e687603" x="142.018305" y="191.470741" style="fill: #ffffff; stroke: #9a4d8e; stroke-linejoin: miter"/>
     <use xlink:href="#m885e687603" x="155.468902" y="207.583746" style="fill: #ffffff; stroke: #9a4d8e; stroke-linejoin: miter"/>
     <use xlink:href="#m885e687603" x="168.920956" y="199.138588" style="fill: #ffffff; stroke: #9a4d8e; stroke-linejoin: miter"/>
    </g>
   </g>
   <g id="line2d_27">
    <path d="M 87.328086 66.780463 
L 88.452395 92.994349 
L 89.354814 107.844725 
L 93.408368 162.497145 
L 94.30515 171.032368 
L 94.531606 176.543306 
L 95.209775 182.382415 
L 95.435771 183.890913 
L 95.880101 188.795211 
L 96.106248 188.396451 
L 96.558186 193.695208 
L 96.784301 193.764335 
L 97.010693 195.725669 
L 97.235692 196.275898 
L 97.461706 198.282454 
L 97.687708 198.254524 
L 97.90697 201.745216 
L 98.133217 199.855478 
L 98.585043 201.193453 
L 98.811178 201.384163 
L 99.037434 201.354862 
L 99.489169 199.080968 
L 99.708761 202.026427 
L 99.935236 201.225361 
L 100.16136 204.021718 
L 100.387777 203.42232 
L 100.613708 203.666753 
L 100.620572 205.086376 
L 102.207516 198.863629 
L 103.79467 204.529957 
L 105.383814 204.382837 
L 106.969239 201.748585 
L 108.557493 202.880546 
L 110.142699 204.837596 
L 111.72877 197.030725 
L 113.315919 202.323929 
L 114.900807 201.849706 
L 116.487573 201.246242 
L 118.0763 199.626735 
L 119.666513 197.721102 
L 121.249959 196.734861 
L 122.83581 201.305688 
L 124.421534 195.930383 
L 126.003095 208.069974 
L 127.592507 202.838847 
L 129.180632 202.699971 
L 130.768707 196.457441 
L 132.357575 201.038611 
L 133.945593 198.304291 
L 135.533259 200.576429 
L 137.123866 202.269971 
L 138.711214 199.774622 
L 140.300755 196.376539 
L 141.889797 197.932679 
L 143.477165 194.86308 
L 145.065372 197.363901 
L 146.655078 202.766116 
L 149.833575 194.102354 
L 151.419734 196.563914 
L 153.006724 194.487941 
L 154.596208 202.725072 
L 156.185518 198.544004 
L 157.773768 200.82419 
L 159.356948 196.776978 
L 160.946431 201.003219 
L 162.534288 200.211433 
L 164.116986 204.490558 
L 165.703812 199.046135 
L 167.291523 196.283608 
L 168.879733 198.668285 
L 170.468446 198.209503 
L 172.056599 198.002448 
L 173.644092 199.749087 
L 176.81936 193.724948 
L 178.407069 194.078622 
L 181.581355 202.209389 
L 183.169756 192.108818 
L 186.34631 202.461195 
L 187.933996 200.716234 
L 189.523008 204.280617 
L 191.111724 197.068019 
L 192.699921 200.186249 
L 194.286791 201.198375 
L 195.873579 196.619586 
L 197.456428 198.198416 
L 199.045124 199.138438 
L 200.63552 199.846367 
L 202.230472 199.468785 
L 203.820126 198.792272 
L 205.409316 200.37698 
L 206.997903 201.706061 
L 208.587998 196.082486 
L 210.179268 196.525026 
L 211.769073 199.093416 
L 213.359079 201.227775 
L 216.544283 195.702224 
L 218.13325 195.042685 
L 219.722271 198.617629 
L 221.312319 199.317638 
L 222.899896 197.569164 
L 224.487542 200.884651 
L 227.6644 200.371244 
L 229.255424 199.963122 
L 230.844142 197.475196 
L 232.433584 195.275529 
L 234.021282 203.644002 
L 235.607778 198.565264 
L 237.199288 198.007197 
L 238.788178 199.926807 
L 240.376927 192.719447 
L 241.965254 192.650229 
L 243.555875 199.006018 
L 245.140067 194.682629 
L 246.727943 192.543723 
L 248.316021 202.775741 
L 249.903402 205.00771 
L 251.493493 203.284311 
L 253.082772 197.214374 
L 254.670812 199.168274 
L 256.258507 200.557946 
L 257.848905 204.46492 
L 259.434101 200.941649 
L 261.022634 199.277428 
L 262.608959 195.339992 
L 264.197618 198.360961 
L 265.786083 203.814672 
L 267.374608 200.964645 
L 268.964169 203.955976 
L 270.553013 194.138724 
L 272.141906 198.315673 
L 273.731072 201.555095 
L 275.32005 200.240006 
L 276.908103 201.006552 
L 278.496439 197.913244 
L 280.086383 198.423892 
L 281.677262 200.148498 
L 283.26622 197.964069 
L 284.855185 194.136067 
L 286.445568 198.313652 
L 288.034973 198.306658 
L 289.622313 205.366792 
L 291.206689 196.73129 
L 292.796923 200.184048 
L 294.389249 201.021907 
L 295.978549 200.1384 
L 297.568972 198.771651 
L 299.1584 196.463383 
L 300.748939 196.724272 
L 302.339503 197.749526 
L 307.106267 198.705179 
L 308.696721 204.08021 
L 311.873495 198.756435 
L 313.463421 205.784248 
L 315.052384 206.794846 
L 316.64122 200.294428 
L 318.229079 200.710877 
L 319.817635 197.660607 
L 322.997979 195.989952 
L 324.588364 195.406499 
L 326.175635 200.890864 
L 327.762948 201.608244 
L 329.349413 204.582831 
L 330.937828 197.378171 
L 332.524326 195.717395 
L 334.112361 197.509018 
L 335.701889 196.373995 
L 337.287277 200.216455 
L 338.876119 194.192177 
L 340.462381 193.762651 
L 342.046563 194.751426 
L 345.216825 201.14338 
L 346.80302 197.486149 
L 348.392318 194.572549 
L 351.584494 198.034173 
L 353.174141 202.140552 
L 353.174141 202.140552 
" clip-path="url(#pb3dbaba321)" style="fill: none; stroke: #0f4d92; stroke-width: 2.3; stroke-linecap: square"/>
    <defs>
     <path id="m77ce51d0c6" d="M 0 -3 
L -0.673542 -0.927051 
L -2.85317 -0.927051 
L -1.089814 0.354102 
L -1.763356 2.427051 
L -0 1.145898 
L 1.763356 2.427051 
L 1.089814 0.354102 
L 2.85317 -0.927051 
L 0.673542 -0.927051 
z
" style="stroke: #0f4d92; stroke-linejoin: bevel"/>
    </defs>
    <g clip-path="url(#pb3dbaba321)">
     <use xlink:href="#m77ce51d0c6" x="87.328086" y="66.780463" style="fill: #ffffff; stroke: #0f4d92; stroke-linejoin: bevel"/>
     <use xlink:href="#m77ce51d0c6" x="93.408368" y="162.497145" style="fill: #ffffff; stroke: #0f4d92; stroke-linejoin: bevel"/>
     <use xlink:href="#m77ce51d0c6" x="99.489169" y="199.080968" style="fill: #ffffff; stroke: #0f4d92; stroke-linejoin: bevel"/>
     <use xlink:href="#m77ce51d0c6" x="133.945593" y="198.304291" style="fill: #ffffff; stroke: #0f4d92; stroke-linejoin: bevel"/>
     <use xlink:href="#m77ce51d0c6" x="176.81936" y="193.724948" style="fill: #ffffff; stroke: #0f4d92; stroke-linejoin: bevel"/>
     <use xlink:href="#m77ce51d0c6" x="219.722271" y="198.617629" style="fill: #ffffff; stroke: #0f4d92; stroke-linejoin: bevel"/>
     <use xlink:href="#m77ce51d0c6" x="262.608959" y="195.339992" style="fill: #ffffff; stroke: #0f4d92; stroke-linejoin: bevel"/>
     <use xlink:href="#m77ce51d0c6" x="305.517762" y="198.261732" style="fill: #ffffff; stroke: #0f4d92; stroke-linejoin: bevel"/>
     <use xlink:href="#m77ce51d0c6" x="348.392318" y="194.572549" style="fill: #ffffff; stroke: #0f4d92; stroke-linejoin: bevel"/>
    </g>
   </g>
   <g id="line2d_28">
    <path d="M 87.324986 66.73582 
L 88.162776 100.903001 
L 89.359681 134.725513 
L 90.801451 170.95464 
L 91.64132 190.173668 
L 91.879128 193.036558 
L 92.119962 198.297363 
L 92.722832 191.470368 
L 92.843262 200.051152 
L 93.080444 195.669709 
L 93.442285 201.381773 
L 93.563163 198.776943 
L 93.804106 200.855703 
L 93.921215 200.617975 
L 94.041559 202.661601 
L 94.282519 198.886677 
L 94.403134 198.889015 
L 94.406887 198.704983 
L 95.251745 201.792692 
L 96.098663 201.875166 
L 96.946468 203.267415 
L 97.792967 208.691469 
L 98.637689 202.193602 
L 99.482578 202.663972 
L 100.329937 200.244558 
L 101.179272 199.118483 
L 102.026274 200.097263 
L 102.872897 202.835959 
L 103.717703 203.436188 
L 104.563988 205.8126 
L 105.409569 206.158653 
L 106.256971 200.625031 
L 107.10245 194.177598 
L 107.948295 199.114641 
L 108.795485 201.845457 
L 109.642469 205.446992 
L 110.486794 205.337749 
L 111.330895 197.712316 
L 112.175902 199.692562 
L 113.022336 197.491299 
L 113.868401 201.922098 
L 114.715165 199.842372 
L 115.562726 202.166252 
L 116.409219 201.938369 
L 117.255448 201.939822 
L 118.102292 199.375713 
L 118.948899 194.712681 
L 119.794011 194.531798 
L 120.630454 199.557289 
L 121.475465 200.065092 
L 122.321249 199.805753 
L 123.166343 198.562232 
L 124.010977 199.659503 
L 124.858729 204.638913 
L 125.704537 199.868589 
L 126.550577 199.741594 
L 127.396679 203.041807 
L 128.239527 202.441771 
L 129.086778 200.220723 
L 129.933687 200.516796 
L 130.780738 199.831908 
L 131.623567 201.478379 
L 132.468279 203.614759 
L 133.315175 207.826565 
L 134.16207 207.162389 
L 135.008434 197.052336 
L 135.852687 204.241516 
L 136.697138 193.371575 
L 137.54279 196.17958 
L 138.388538 193.830297 
L 139.235415 202.185871 
L 140.083085 202.758167 
L 140.929007 199.067169 
L 141.775525 199.046646 
L 142.624276 195.45256 
L 143.470932 199.489336 
L 144.317155 200.604573 
L 145.163722 198.377827 
L 146.857619 202.432446 
L 147.704869 208.309399 
L 149.394428 199.167467 
L 150.241421 199.612298 
L 151.089278 204.43307 
L 151.936447 203.992433 
L 152.777815 204.969185 
L 153.623718 204.061384 
L 154.47231 203.83406 
L 155.319553 197.41951 
L 156.166657 199.554424 
L 157.012403 204.362921 
L 157.859554 201.288055 
L 158.704943 198.652977 
L 159.551501 199.921798 
L 160.39676 200.774224 
L 161.242424 203.781692 
L 162.086443 203.174137 
L 162.933061 195.636798 
L 163.780661 196.547729 
L 164.627785 194.595262 
L 165.474297 203.35157 
L 166.323068 201.545929 
L 168.015926 205.6511 
L 168.862504 198.977692 
L 169.708604 197.832146 
L 170.554804 203.996926 
L 171.402227 198.687408 
L 172.250064 198.605129 
L 173.098458 203.196188 
L 173.943286 201.576581 
L 174.790112 198.269054 
L 175.636834 202.51075 
L 176.4842 210.813155 
L 177.331798 203.854863 
L 178.178736 198.642606 
L 179.024532 198.417085 
L 179.872007 195.224514 
L 180.718438 203.198617 
L 181.567024 201.71842 
L 182.413297 197.784267 
L 183.259306 197.59844 
L 184.105852 200.546694 
L 184.953006 200.656568 
L 185.798764 201.395295 
L 186.642931 203.991156 
L 187.488234 199.312715 
L 188.334389 198.533697 
L 189.182957 199.210794 
L 190.029354 199.369854 
L 190.874852 205.90884 
L 191.721899 205.299467 
L 192.567087 201.890255 
L 193.412079 197.199283 
L 194.256257 197.358991 
L 195.100936 203.610591 
L 195.943212 198.371517 
L 197.639958 205.43925 
L 198.480164 202.944467 
L 199.312636 201.516736 
L 200.145116 205.855951 
L 201.830266 199.802185 
L 202.670809 201.977587 
L 203.511823 199.309287 
L 204.354119 200.682672 
L 205.195643 203.704944 
L 206.04824 201.01573 
L 206.897302 201.628495 
L 207.739526 205.831171 
L 208.581965 203.211972 
L 209.424166 202.427758 
L 210.267401 199.742698 
L 211.109798 206.480233 
L 211.951616 197.634629 
L 212.792368 193.12164 
L 213.6336 201.98297 
L 214.476442 199.386775 
L 215.320155 199.378292 
L 216.162129 199.953314 
L 217.004312 203.431169 
L 217.847898 201.909118 
L 218.689986 197.576284 
L 219.531623 204.247787 
L 220.373752 197.652047 
L 221.216241 196.483034 
L 222.059375 200.569399 
L 223.744423 201.810305 
L 224.585985 206.985057 
L 225.428648 199.927602 
L 226.26975 205.067939 
L 227.112346 199.762815 
L 227.955169 204.619526 
L 228.798591 205.161719 
L 228.798591 205.161719 
" clip-path="url(#pb3dbaba321)" style="fill: none; stroke-dasharray: 6.9,2.3,2.3,2.3; stroke-dashoffset: 0; stroke: #3775ba; stroke-width: 2.3"/>
    <defs>
     <path id="md106664acc" d="M -1 3 
L 1 3 
L 1 1 
L 3 1 
L 3 -1 
L 1 -1 
L 1 -3 
L -1 -3 
L -1 -1 
L -3 -1 
L -3 1 
L -1 1 
z
" style="stroke: #3775ba; stroke-linejoin: miter"/>
    </defs>
    <g clip-path="url(#pb3dbaba321)">
     <use xlink:href="#md106664acc" x="87.324986" y="66.73582" style="fill: #ffffff; stroke: #3775ba; stroke-linejoin: miter"/>
     <use xlink:href="#md106664acc" x="90.560354" y="166.027777" style="fill: #ffffff; stroke: #3775ba; stroke-linejoin: miter"/>
     <use xlink:href="#md106664acc" x="93.804106" y="200.855703" style="fill: #ffffff; stroke: #3775ba; stroke-linejoin: miter"/>
     <use xlink:href="#md106664acc" x="112.175902" y="199.692562" style="fill: #ffffff; stroke: #3775ba; stroke-linejoin: miter"/>
     <use xlink:href="#md106664acc" x="135.008434" y="197.052336" style="fill: #ffffff; stroke: #3775ba; stroke-linejoin: miter"/>
     <use xlink:href="#md106664acc" x="157.859554" y="201.288055" style="fill: #ffffff; stroke: #3775ba; stroke-linejoin: miter"/>
     <use xlink:href="#md106664acc" x="180.718438" y="203.198617" style="fill: #ffffff; stroke: #3775ba; stroke-linejoin: miter"/>
     <use xlink:href="#md106664acc" x="203.511823" y="199.309287" style="fill: #ffffff; stroke: #3775ba; stroke-linejoin: miter"/>
     <use xlink:href="#md106664acc" x="226.26975" y="205.067939" style="fill: #ffffff; stroke: #3775ba; stroke-linejoin: miter"/>
    </g>
   </g>
  </g>
  <g id="legend_1">
   <g id="line2d_29">
    <path d="M 49.3525 13.228281 
L 63.1025 13.228281 
L 76.8525 13.228281 
" style="fill: none; stroke: #767676; stroke-width: 2.3; stroke-linecap: square"/>
    <g>
     <use xlink:href="#m299836e717" x="63.1025" y="13.228281" style="fill: #ffffff; stroke: #767676"/>
    </g>
   </g>
   <g id="text_17">
    <text style="font-size: 11px; font-family: 'Arial', 'Helvetica', 'DejaVu Sans', sans-serif; text-anchor: start" x="85.6525" y="17.078281" transform="rotate(-0 85.6525 17.078281)">ULA</text>
   </g>
   <g id="line2d_30">
    <path d="M 49.3525 29.729141 
L 63.1025 29.729141 
L 76.8525 29.729141 
" style="fill: none; stroke-dasharray: 8.51,3.68; stroke-dashoffset: 0; stroke: #42949e; stroke-width: 2.3"/>
    <g>
     <use xlink:href="#m1e0bfad962" x="63.1025" y="29.729141" style="fill: #ffffff; stroke: #42949e; stroke-linejoin: miter"/>
    </g>
   </g>
   <g id="text_18">
    <text style="font-size: 11px; font-family: 'Arial', 'Helvetica', 'DejaVu Sans', sans-serif; text-anchor: start" x="85.6525" y="33.579141" transform="rotate(-0 85.6525 33.579141)">ULD</text>
   </g>
   <g id="line2d_31">
    <path d="M 120.402188 13.228281 
L 134.152188 13.228281 
L 147.902188 13.228281 
" style="fill: none; stroke-dasharray: 14.72,3.68,2.3,3.68; stroke-dashoffset: 0; stroke: #9a4d8e; stroke-width: 2.3"/>
    <g>
     <use xlink:href="#m885e687603" x="134.152188" y="13.228281" style="fill: #ffffff; stroke: #9a4d8e; stroke-linejoin: miter"/>
    </g>
   </g>
   <g id="text_19">
    <text style="font-size: 11px; font-family: 'Arial', 'Helvetica', 'DejaVu Sans', sans-serif; text-anchor: start" x="156.702188" y="17.078281" transform="rotate(-0 156.702188 17.078281)">PT</text>
   </g>
   <g id="line2d_32">
    <path d="M 120.402188 29.729141 
L 134.152188 29.729141 
L 147.902188 29.729141 
" style="fill: none; stroke: #0f4d92; stroke-width: 2.3; stroke-linecap: square"/>
    <g>
     <use xlink:href="#m77ce51d0c6" x="134.152188" y="29.729141" style="fill: #ffffff; stroke: #0f4d92; stroke-linejoin: bevel"/>
    </g>
   </g>
   <g id="text_20">
    <text style="font-size: 11px; font-family: 'Arial', 'Helvetica', 'DejaVu Sans', sans-serif; text-anchor: start" x="156.702188" y="33.579141" transform="rotate(-0 156.702188 33.579141)">LSC-CP</text>
   </g>
   <g id="line2d_33">
    <path d="M 207.877969 13.228281 
L 221.627969 13.228281 
L 235.377969 13.228281 
" style="fill: none; stroke-dasharray: 6.9,2.3,2.3,2.3; stroke-dashoffset: 0; stroke: #3775ba; stroke-width: 2.3"/>
    <g>
     <use xlink:href="#md106664acc" x="221.627969" y="13.228281" style="fill: #ffffff; stroke: #3775ba; stroke-linejoin: miter"/>
    </g>
   </g>
   <g id="text_21">
    <text style="font-size: 11px; font-family: 'Arial', 'Helvetica', 'DejaVu Sans', sans-serif; text-anchor: start" x="244.177969" y="17.078281" transform="rotate(-0 244.177969 17.078281)">LSC-CP-RA (4)</text>
   </g>
  </g>
 </g>
 <defs>
  <clipPath id="pb3dbaba321">
   <rect x="74.03" y="57.576" width="292.436719" height="196.276"/>
  </clipPath>
 </defs>
</svg>
